{"glyphs":{"0":{"ha":825,"x_min":0,"x_max":0,"o":"m 21 519 b 413 0 21 225 172 0 b 804 535 679 0 804 269 b 414 1053 804 854 628 1053 b 21 519 189 1053 21 847 z m 176 518 b 410 917 176 804 285 917 b 646 535 525 917 646 817 b 411 132 646 200 493 132 b 176 518 318 132 176 217 z "},"1":{"ha":361,"x_min":0,"x_max":0,"o":"m 0 875 l 101 872 l 101 213 b 56 0 101 139 96 69 l 286 0 b 257 153 275 21 257 58 l 257 1050 l 233 1050 z "},"2":{"ha":738,"x_min":0,"x_max":0,"o":"m 232 664 b 215 758 222 696 215 724 b 372 924 215 871 300 924 b 522 785 433 924 522 886 b 428 576 522 729 494 676 b 11 0 392 521 101 117 l 11 -8 b 347 3 143 -1 286 3 b 696 -8 404 3 547 0 l 715 210 b 501 119 625 119 567 119 l 272 119 l 511 451 l 564 531 b 672 794 597 578 672 689 b 386 1050 672 910 574 1050 b 90 789 185 1050 90 897 l 93 753 z "},"3":{"ha":753,"x_min":0,"x_max":0,"o":"m 57 1042 l 53 831 b 349 928 101 888 140 928 b 518 914 442 928 469 924 b 400 703 486 856 433 753 l 263 493 b 415 464 318 490 363 489 b 532 288 482 433 532 361 b 346 101 532 204 471 101 b 151 276 283 101 179 139 l 25 99 b 332 -8 110 26 219 -8 b 667 308 578 -8 667 192 b 593 497 667 378 640 447 b 471 574 550 544 508 560 b 600 797 496 618 531 685 l 744 1025 l 744 1042 z "},"4":{"ha":796,"x_min":0,"x_max":0,"o":"m 450 1050 l 383 956 l 169 663 b 22 497 124 600 75 542 l 22 383 l 450 383 l 450 258 b 415 0 450 133 425 36 l 639 0 b 601 247 610 86 607 136 l 601 383 l 639 383 b 781 357 718 383 743 372 l 781 525 b 656 497 754 510 732 497 l 601 497 l 601 1050 z m 183 497 l 454 869 l 454 497 z "},"5":{"ha":708,"x_min":0,"x_max":0,"o":"m 104 1044 b 125 911 114 1019 125 992 l 125 472 b 268 510 183 497 224 510 b 471 308 381 510 471 426 b 290 118 471 208 397 118 b 93 239 190 118 138 185 l 8 89 b 293 -8 143 -3 254 -8 b 639 317 490 -8 639 135 b 344 611 639 504 482 611 b 272 606 318 611 283 607 l 272 944 l 439 944 b 635 901 533 944 556 939 l 701 1042 z "},"6":{"ha":694,"x_min":0,"x_max":0,"o":"m 385 1042 b 339 925 381 1004 368 979 b 285 825 317 883 303 857 l 132 564 b 32 286 58 438 32 360 b 347 -10 32 107 168 -10 b 675 303 546 -10 675 135 b 386 603 675 482 538 603 b 329 599 367 603 338 600 l 464 824 b 631 1042 481 851 546 954 z m 356 474 b 536 294 453 474 536 399 b 360 118 536 214 475 118 b 179 296 258 118 179 193 b 356 474 179 404 268 474 z "},"7":{"ha":708,"x_min":0,"x_max":0,"o":"m 243 0 b 286 158 243 64 269 121 l 640 921 l 700 1042 l 174 1042 b 88 1044 143 1042 114 1043 b 14 1050 63 1046 38 1047 b 24 979 22 1013 24 982 l 24 851 b 243 921 113 906 139 921 l 467 921 l 160 222 b 39 0 125 146 86 71 z "},"8":{"ha":694,"x_min":0,"x_max":0,"o":"m 517 553 b 642 774 563 590 642 653 b 347 1051 642 919 526 1051 b 53 774 168 1051 53 919 b 178 553 53 653 131 590 b 22 304 33 472 22 351 b 347 -11 22 133 175 -11 b 672 304 519 -11 672 132 b 517 553 672 354 658 474 z m 346 928 b 511 763 436 928 511 856 b 346 597 511 671 436 597 b 181 763 256 597 181 669 b 346 928 181 856 257 928 z m 347 478 b 522 303 443 478 522 400 b 347 128 522 207 444 128 b 171 303 249 128 171 207 b 346 478 171 400 250 478 z "},"9":{"ha":694,"x_min":0,"x_max":0,"o":"m 331 0 b 351 72 331 28 335 40 l 597 524 b 676 753 675 667 676 713 b 364 1049 676 901 574 1049 b 31 739 132 1049 31 892 b 331 442 31 538 194 442 b 383 444 349 442 369 443 l 238 201 b 93 0 196 131 149 61 z m 349 928 b 526 749 446 928 526 849 b 349 569 526 650 446 569 b 169 749 249 569 169 650 b 349 928 169 849 250 928 z "}," ":{"ha":463,"x_min":0,"x_max":0,"o":""},"!":{"ha":304,"x_min":0,"x_max":0,"o":"m 18 1042 b 78 779 50 994 78 954 l 78 493 b 139 285 78 407 92 378 l 154 285 b 218 513 219 404 219 440 l 218 800 b 281 1042 218 958 256 1008 z m 144 213 b 35 103 85 213 35 164 b 144 -7 35 42 83 -7 b 254 103 206 -7 254 42 b 144 213 254 164 204 213 z "},"\"":{"ha":492,"x_min":0,"x_max":0,"o":"m 97 699 l 172 699 l 203 888 l 203 1051 l 64 1051 l 64 888 z m 322 699 l 396 699 l 428 888 l 428 1051 l 289 1051 l 289 888 z "},"#":{"ha":926,"x_min":0,"x_max":0,"o":"m 765 426 l 639 426 l 667 618 l 806 618 l 806 711 l 679 711 l 721 1008 l 619 1008 l 579 711 l 414 711 l 456 1008 l 354 1008 l 314 711 l 163 711 l 163 618 l 301 618 l 274 426 l 122 426 l 122 333 l 261 333 l 219 36 l 319 36 l 361 333 l 526 333 l 485 36 l 585 36 l 626 333 l 765 333 z m 567 618 l 539 426 l 374 426 l 401 618 z "},"$":{"ha":694,"x_min":0,"x_max":0,"o":"m 290 1049 l 290 989 b 133 939 243 985 185 981 b 39 724 82 899 39 819 b 290 439 39 550 165 494 l 290 122 b 68 242 193 133 149 163 l 68 22 b 290 -6 147 6 193 -1 l 290 -169 l 399 -169 l 399 -6 b 551 51 456 4 504 14 b 657 281 597 86 657 157 b 399 579 657 457 492 540 l 399 860 b 588 761 474 851 519 826 l 588 978 b 399 988 532 976 519 976 l 399 1049 z m 290 625 b 181 749 229 651 181 672 b 290 861 181 819 224 853 z m 399 389 b 518 249 503 349 518 288 b 399 125 518 229 508 131 z "},"%":{"ha":1331,"x_min":0,"x_max":0,"o":"m 994 399 b 1113 247 1056 399 1113 349 b 994 83 1113 221 1113 83 b 879 236 925 83 879 143 b 994 399 879 357 939 399 z m 994 506 b 751 240 849 506 751 392 b 996 -26 751 89 853 -26 b 1240 240 1147 -26 1240 90 b 994 506 1240 400 1139 506 z m 913 1049 l 331 -26 l 422 -26 l 1003 1049 z m 333 1051 b 90 786 188 1051 90 938 b 335 519 90 635 192 519 b 579 786 486 519 579 636 b 333 1051 579 946 478 1051 z m 333 944 b 451 793 394 944 451 894 b 333 629 451 767 451 629 b 218 782 264 629 218 689 b 333 944 218 903 278 944 z "},"&":{"ha":1172,"x_min":0,"x_max":0,"o":"m 599 865 l 599 746 b 746 753 693 754 704 754 b 714 383 747 649 744 525 b 478 518 608 465 535 496 b 554 681 499 539 554 592 b 338 885 554 781 472 885 b 110 671 219 885 110 804 b 183 506 110 581 150 539 b 33 258 142 482 33 414 b 379 -10 33 71 211 -10 b 661 65 486 -10 594 24 b 763 161 713 97 739 131 b 1021 -7 922 15 951 3 l 1161 78 b 821 281 1003 142 957 160 b 869 753 871 449 879 667 b 1058 735 953 754 997 747 l 1058 865 z m 332 765 b 436 674 393 765 436 725 b 332 576 436 613 382 576 b 229 671 283 576 229 613 b 332 765 229 721 268 765 z m 663 254 b 390 121 604 172 519 121 b 174 274 244 121 174 193 b 322 443 174 382 288 429 b 663 254 478 393 556 353 z "},"’":{"ha":333,"x_min":0,"x_max":0,"o":"m 113 1042 b 132 950 125 1007 132 983 b 31 721 132 860 67 769 l 164 721 b 329 1042 294 882 318 972 z "},"(":{"ha":449,"x_min":0,"x_max":0,"o":"m 442 1042 b 324 1050 410 1046 383 1050 b 31 393 154 1050 31 982 b 338 -226 31 -194 179 -226 b 435 -214 390 -226 410 -221 l 435 -203 b 208 372 308 -165 208 -101 b 282 915 208 518 214 801 b 442 1028 329 994 385 1011 z "},")":{"ha":449,"x_min":0,"x_max":0,"o":"m 7 -218 b 125 -226 39 -222 65 -226 b 418 431 294 -226 418 -158 b 111 1050 418 1018 269 1050 b 14 1036 58 1050 39 1044 l 14 1025 b 240 451 140 989 240 924 b 167 -92 240 306 235 22 b 7 -204 119 -171 64 -187 z "},"*":{"ha":694,"x_min":0,"x_max":0,"o":"m 349 315 l 436 528 l 664 496 l 526 678 l 664 860 l 436 832 l 349 1049 l 260 832 l 32 860 l 172 678 l 32 496 l 260 528 z m 349 776 b 444 679 403 776 444 732 b 349 583 444 628 403 583 b 253 679 296 583 253 626 b 349 776 251 733 296 776 z "},"+":{"ha":926,"x_min":0,"x_max":0,"o":"m 407 408 l 114 408 l 114 294 l 407 294 l 407 0 l 521 0 l 521 294 l 814 294 l 814 408 l 521 408 l 521 703 l 407 703 z "},",":{"ha":347,"x_min":0,"x_max":0,"o":"m 114 276 b 129 181 122 247 129 224 b 14 -187 129 72 83 -47 l 111 -187 b 335 276 301 68 322 199 z "},"-":{"ha":390,"x_min":0,"x_max":0,"o":"m 33 281 b 194 299 67 288 125 299 b 371 281 214 299 290 296 l 371 449 b 206 431 303 436 264 431 b 33 449 139 431 92 439 z "},".":{"ha":333,"x_min":0,"x_max":0,"o":"m 168 214 b 57 103 107 214 57 164 b 168 -10 57 40 107 -10 b 279 103 229 -10 279 40 b 168 214 279 164 229 214 z "},"/":{"ha":767,"x_min":0,"x_max":0,"o":"m 447 1053 l 182 -8 l 303 -8 l 569 1053 z "},":":{"ha":333,"x_min":0,"x_max":0,"o":"m 168 214 b 57 103 107 214 57 164 b 168 -10 57 40 107 -10 b 279 103 229 -10 279 40 b 168 214 279 164 229 214 z m 168 729 b 57 618 107 729 57 679 b 168 506 57 556 107 506 b 279 618 229 506 279 556 b 168 729 279 679 229 729 z "},";":{"ha":347,"x_min":0,"x_max":0,"o":"m 115 278 b 129 181 124 247 129 224 b 14 -187 129 72 83 -47 l 111 -187 b 336 276 301 68 322 199 z m 208 729 b 97 618 147 729 97 679 b 208 506 97 556 147 506 b 321 618 269 506 321 556 b 208 729 321 679 269 729 z "},"<":{"ha":926,"x_min":0,"x_max":0,"o":"m 817 103 l 256 351 l 817 600 l 817 714 l 111 401 l 111 301 l 817 -11 z "},"=":{"ha":926,"x_min":0,"x_max":0,"o":"m 814 549 l 114 549 l 114 435 l 814 435 z m 814 268 l 114 268 l 114 154 l 814 154 z "},">":{"ha":926,"x_min":0,"x_max":0,"o":"m 111 103 l 111 -11 l 817 301 l 817 401 l 111 714 l 111 600 l 672 351 z "},"?":{"ha":593,"x_min":0,"x_max":0,"o":"m 54 867 b 217 929 92 894 138 929 b 419 725 317 929 419 854 b 206 492 419 560 286 518 b 154 422 172 482 154 467 b 161 290 154 367 158 315 l 176 290 b 350 411 206 344 215 353 b 575 729 413 439 575 508 b 221 1050 575 886 465 1050 b 64 1019 140 1050 104 1036 z m 181 207 b 71 96 119 207 71 157 b 181 -14 71 36 119 -14 b 290 97 242 -14 290 38 b 181 207 290 157 242 207 z "},"@":{"ha":1403,"x_min":0,"x_max":0,"o":"m 1049 131 b 744 54 961 88 882 54 b 296 483 499 54 296 251 b 729 997 296 814 501 997 b 1161 600 996 997 1161 782 b 974 292 1161 450 1082 292 b 924 392 911 292 914 365 l 1019 776 l 908 776 l 894 719 b 786 796 871 778 832 796 b 483 424 582 796 483 542 b 633 233 483 260 583 233 b 808 342 721 233 794 318 l 811 342 b 950 233 808 321 847 233 b 1236 600 1135 233 1236 444 b 729 1053 1236 861 1014 1053 b 167 500 428 1053 167 832 b 747 -8 167 292 346 -8 b 1067 81 868 -8 967 28 z m 803 724 b 864 624 847 724 864 688 b 692 310 844 413 756 310 b 604 439 642 310 604 351 b 803 724 604 611 729 724 z "},"A":{"ha":1100,"x_min":0,"x_max":0,"o":"m 576 1046 l 568 1046 l 167 249 b 15 0 81 78 50 40 l 269 0 b 322 211 264 82 304 172 l 375 324 l 740 324 l 801 183 b 844 0 839 99 844 46 l 1092 3 b 929 285 1053 56 1004 122 z m 565 725 l 686 446 l 433 446 z "},"B":{"ha":708,"x_min":0,"x_max":0,"o":"m 79 1042 b 115 768 93 1007 115 957 l 115 300 b 75 3 115 239 111 115 l 311 0 b 515 38 379 -1 457 17 b 693 288 599 67 693 172 b 506 558 693 404 607 497 b 644 783 560 599 644 660 b 313 1042 644 878 572 1042 z m 269 953 b 474 775 382 943 474 893 b 269 564 474 654 382 593 z m 269 544 b 518 294 475 494 518 372 b 269 93 518 260 510 89 z "},"C":{"ha":911,"x_min":0,"x_max":0,"o":"m 875 1011 b 651 1051 824 1029 760 1051 b 44 499 278 1051 44 776 b 567 -8 44 311 163 -8 b 892 71 731 -8 825 38 l 900 232 b 593 119 843 189 753 119 b 210 515 349 119 210 303 b 604 919 210 747 372 919 b 875 844 728 919 814 876 z "},"D":{"ha":882,"x_min":0,"x_max":0,"o":"m 113 317 b 71 0 113 125 93 65 l 322 0 b 864 511 657 0 864 240 b 760 822 864 613 836 724 b 179 1043 601 1025 371 1043 b 71 1038 133 1043 107 1040 b 113 757 83 989 113 901 z m 268 756 b 276 946 268 807 268 882 b 681 525 607 900 681 671 b 276 101 681 361 586 132 b 268 342 268 185 268 224 z "},"E":{"ha":708,"x_min":0,"x_max":0,"o":"m 76 1042 b 115 778 106 951 115 849 l 115 268 b 76 0 115 135 94 61 l 622 0 l 699 174 b 271 99 478 99 404 99 l 271 479 b 508 433 350 474 389 468 l 597 579 l 271 579 l 271 943 b 558 881 381 947 442 933 l 638 1042 z "},"F":{"ha":651,"x_min":0,"x_max":0,"o":"m 72 1042 b 107 781 89 986 107 929 l 107 292 b 72 0 107 249 106 131 l 294 0 b 263 236 271 81 263 153 l 263 469 b 528 422 392 471 456 453 l 607 572 l 263 572 l 263 942 b 558 889 400 938 446 933 l 643 1042 z "},"G":{"ha":1042,"x_min":0,"x_max":0,"o":"m 901 1018 b 631 1053 838 1033 757 1053 b 167 868 410 1053 278 1001 b 36 499 81 765 36 631 b 611 -7 36 301 143 -7 b 976 61 803 -7 906 33 b 957 222 957 132 957 153 l 957 346 b 986 526 957 447 975 494 l 732 526 b 801 271 771 474 801 432 l 801 156 b 618 119 753 136 713 119 b 196 531 350 119 196 303 b 571 939 196 810 394 939 b 901 844 719 939 832 881 z "},"H":{"ha":999,"x_min":0,"x_max":0,"o":"m 83 1044 b 124 776 100 997 124 925 l 124 268 b 83 0 124 113 101 49 l 319 0 b 281 290 301 61 281 125 l 281 463 l 726 463 l 726 279 b 686 0 726 113 708 64 l 924 0 b 883 285 901 61 883 113 l 883 767 b 924 1044 883 926 900 976 l 686 1044 b 726 779 704 989 726 922 l 726 594 l 281 594 l 281 806 b 322 1044 281 938 304 996 z "},"I":{"ha":390,"x_min":0,"x_max":0,"o":"m 82 1042 b 122 794 108 978 122 913 l 122 299 b 82 0 122 125 103 65 l 317 0 b 278 288 286 110 278 169 l 278 767 b 317 1042 278 924 297 981 z "},"J":{"ha":535,"x_min":0,"x_max":0,"o":"m 35 904 b 192 921 79 913 146 922 l 257 918 b 254 656 254 844 254 722 l 257 363 b 19 -208 261 -56 165 -133 b 107 -222 33 -211 79 -222 b 367 -47 128 -222 300 -212 b 411 378 385 -3 411 65 l 408 697 b 438 1042 407 833 413 971 l 78 1042 z "},"K":{"ha":940,"x_min":0,"x_max":0,"o":"m 85 1039 b 121 817 107 972 121 886 l 121 274 b 79 0 121 181 108 89 l 314 0 b 278 261 301 44 278 144 l 278 561 l 563 203 b 675 0 646 101 661 50 l 929 1 b 811 133 858 72 850 85 l 457 579 l 644 803 b 890 1042 740 919 822 992 l 626 1042 b 546 906 618 1008 613 985 l 278 579 l 278 783 b 319 1042 278 926 294 972 z "},"L":{"ha":694,"x_min":0,"x_max":0,"o":"m 685 196 b 283 106 574 151 469 122 l 289 785 b 329 1040 290 939 308 986 l 96 1040 b 132 794 113 994 132 944 l 132 335 b 90 0 132 107 117 67 l 599 0 z "},"M":{"ha":1229,"x_min":0,"x_max":0,"o":"m 3 1042 l 106 928 l 106 278 b 58 0 106 117 79 49 l 306 0 b 261 232 261 100 261 215 l 261 753 l 614 317 l 964 753 l 964 258 b 918 0 964 158 953 78 l 1168 0 b 1121 275 1122 101 1121 200 l 1121 788 b 1204 1038 1121 939 1161 986 l 1000 1038 b 925 928 969 982 956 965 l 614 543 l 329 897 b 239 1042 274 965 257 999 z "},"N":{"ha":1100,"x_min":0,"x_max":0,"o":"m 13 1042 b 153 901 75 992 103 965 l 153 275 b 118 0 153 256 151 108 l 339 0 b 297 306 307 85 297 214 l 297 717 l 740 150 b 829 0 776 104 811 56 l 1022 0 b 988 260 1007 43 988 99 l 988 819 b 1014 1042 988 931 1000 986 l 814 1042 b 843 742 831 982 843 933 l 843 268 l 372 865 b 261 1042 290 969 281 994 z "},"O":{"ha":1172,"x_min":0,"x_max":0,"o":"m 49 532 b 593 -7 49 265 257 -7 b 1138 525 888 -7 1138 200 b 619 1050 1138 789 964 1050 b 49 532 257 1050 49 764 z m 224 556 b 568 939 224 757 358 939 b 976 486 811 939 976 703 b 636 106 976 324 868 106 b 224 556 438 106 224 274 z "},"P":{"ha":681,"x_min":0,"x_max":0,"o":"m 131 340 b 83 0 131 168 103 72 l 326 0 b 286 294 307 81 286 214 l 286 465 l 326 463 b 668 750 458 453 668 522 b 317 1042 668 926 526 1042 l 90 1042 b 131 763 107 1003 131 947 z m 286 856 b 292 972 286 890 289 938 b 438 913 342 967 393 958 b 504 740 485 864 504 799 b 286 514 504 553 353 525 z "},"Q":{"ha":1229,"x_min":0,"x_max":0,"o":"m 1172 -196 b 926 76 1072 -122 997 -22 b 1068 211 965 103 1015 136 b 1167 525 1129 296 1167 403 b 651 1051 1167 817 969 1051 b 78 522 331 1051 78 815 b 613 -7 78 244 318 -7 b 671 -6 635 -7 654 -6 b 717 0 689 -4 704 -1 b 1071 -221 908 -182 976 -221 b 1172 -211 1106 -221 1135 -217 z m 343 822 b 606 939 417 917 536 939 b 1004 482 831 939 1004 717 b 664 107 1004 333 903 107 b 251 546 431 107 251 317 b 343 822 251 621 274 733 z "},"R":{"ha":854,"x_min":0,"x_max":0,"o":"m 122 269 b 94 0 122 179 117 103 l 306 0 b 276 225 278 111 276 144 l 276 482 b 696 0 492 196 556 121 l 839 0 b 494 467 715 149 588 303 b 692 744 542 492 692 575 b 297 1042 692 885 565 1046 l 94 1039 b 122 824 106 1003 122 946 z m 276 953 b 533 729 485 932 533 807 b 276 497 533 569 375 525 z "},"S":{"ha":622,"x_min":0,"x_max":0,"o":"m 554 1003 b 343 1053 504 1024 438 1053 b 35 751 172 1053 35 917 b 346 399 35 593 124 538 b 433 261 376 379 433 333 b 278 115 433 188 368 115 b 74 242 182 115 121 188 l 74 21 b 253 -7 122 7 171 -7 b 606 290 471 -7 606 118 b 414 558 606 390 564 472 b 196 783 283 633 196 685 b 357 924 196 865 267 924 b 554 842 450 924 508 878 z "},"T":{"ha":868,"x_min":0,"x_max":0,"o":"m 83 1040 l 28 865 b 360 936 229 938 290 938 l 360 265 b 331 0 360 142 346 65 l 543 0 b 514 249 521 81 514 165 l 514 936 b 786 881 635 936 672 926 l 858 1040 z "},"U":{"ha":1042,"x_min":0,"x_max":0,"o":"m 71 1042 b 104 803 89 997 104 961 l 104 392 b 443 -10 104 154 228 -10 b 774 103 592 -10 713 65 b 767 0 775 72 774 60 l 951 0 b 924 274 924 140 924 201 l 924 829 b 951 1042 924 965 935 997 l 729 1042 b 767 803 767 963 767 850 l 767 392 b 758 288 767 326 764 308 b 519 106 729 190 632 106 b 281 269 453 106 332 143 b 260 413 265 308 260 347 l 260 792 b 293 1042 260 936 269 974 z "},"V":{"ha":1056,"x_min":0,"x_max":0,"o":"m 7 1042 b 83 925 39 1006 51 989 b 164 746 115 861 151 778 l 457 -7 l 575 -7 l 915 803 b 1053 1038 951 889 993 968 l 782 1042 b 794 974 793 1004 794 989 b 744 785 794 915 767 839 l 521 251 l 304 803 b 260 986 281 865 260 946 b 269 1042 260 1000 261 1011 z "},"W":{"ha":1288,"x_min":0,"x_max":0,"o":"m 31 1039 b 121 771 76 940 114 800 l 326 -10 l 451 -10 l 657 600 l 861 -10 l 985 -10 l 1222 867 b 1281 1035 1242 940 1249 963 l 1078 1038 l 1081 988 b 1046 797 1081 935 1060 851 l 911 297 l 664 1038 l 654 1038 l 401 297 l 276 775 b 235 985 263 828 235 936 b 240 1042 235 1003 239 1032 z "},"X":{"ha":926,"x_min":0,"x_max":0,"o":"m 39 1042 b 232 772 110 957 175 867 l 381 528 l 228 276 b 29 3 211 247 128 111 l 269 0 b 319 138 272 33 276 67 l 467 379 l 578 193 b 643 0 611 138 644 64 l 915 0 b 688 304 810 104 731 233 l 556 528 l 683 740 b 889 1042 731 819 822 949 l 654 1042 b 568 839 642 958 583 863 l 467 672 l 356 858 b 276 1042 321 917 293 971 z "},"Y":{"ha":868,"x_min":0,"x_max":0,"o":"m 33 1039 b 151 888 79 1004 101 979 l 385 472 l 385 178 b 357 0 385 68 372 39 l 568 0 b 540 124 540 54 540 114 l 540 485 l 790 924 b 868 1040 800 939 829 990 l 658 1042 b 604 882 661 992 649 957 l 463 631 l 317 888 b 271 1042 290 935 265 981 z "},"Z":{"ha":796,"x_min":0,"x_max":0,"o":"m 104 1042 l 38 847 b 397 936 106 881 222 936 b 492 931 429 936 475 933 b 24 0 342 606 181 286 l 708 0 l 783 190 b 361 104 719 157 619 104 b 278 108 325 104 303 106 l 604 799 l 726 1042 z "},"[":{"ha":390,"x_min":0,"x_max":0,"o":"m 110 1042 l 110 -215 l 375 -215 l 375 -119 b 249 -124 328 -122 311 -122 l 249 949 l 375 946 l 375 1042 z "},"\\":{"ha":767,"x_min":0,"x_max":0,"o":"m 175 1053 l 442 -8 l 563 -8 l 297 1053 z "},"]":{"ha":390,"x_min":0,"x_max":0,"o":"m 281 1042 l 15 1042 l 15 946 l 142 949 l 142 -124 l 15 -118 l 15 -215 l 281 -215 z "},"^":{"ha":799,"x_min":0,"x_max":0,"o":"m 346 1044 l 36 414 l 154 414 l 399 925 l 646 414 l 763 414 l 451 1044 z "},"_":{"ha":694,"x_min":0,"x_max":0,"o":"m 694 -174 l 694 -104 l 0 -104 l 0 -174 z "},"‘":{"ha":333,"x_min":0,"x_max":0,"o":"m 247 721 b 228 811 235 756 228 778 b 329 1042 228 903 293 993 l 196 1042 b 31 721 65 881 42 789 z "},"a":{"ha":636,"x_min":0,"x_max":0,"o":"m 104 572 b 242 619 149 599 188 619 b 386 550 308 619 367 586 b 394 492 392 539 394 528 l 394 454 b 289 401 365 433 358 428 b 33 168 194 364 33 293 b 217 0 33 50 160 0 b 275 7 239 0 267 6 b 394 101 326 50 342 63 l 394 0 l 558 0 b 532 101 544 43 532 85 l 526 517 b 506 622 526 565 526 585 b 299 725 490 649 433 725 b 235 719 289 725 260 725 l 143 700 z m 394 114 b 319 101 371 107 353 101 b 182 208 247 101 182 128 b 208 318 182 251 193 282 l 394 318 z "},"b":{"ha":753,"x_min":0,"x_max":0,"o":"m 90 1008 b 122 761 122 922 122 876 l 122 256 b 86 4 122 136 115 93 l 228 0 b 468 38 350 0 393 6 b 714 422 606 97 714 208 b 469 721 714 671 543 721 b 363 689 444 721 421 717 l 257 568 l 257 761 b 263 899 257 779 258 860 b 283 1046 264 919 281 1022 z m 257 556 b 376 592 293 575 326 592 b 510 532 443 592 488 557 b 563 353 557 483 563 407 b 369 96 563 96 381 96 b 257 107 351 96 274 106 z "},"c":{"ha":593,"x_min":0,"x_max":0,"o":"m 574 713 b 433 726 536 719 497 726 b 53 344 100 726 53 444 b 390 3 53 147 197 3 b 508 21 443 3 475 11 l 583 138 b 428 110 542 125 490 110 b 199 381 335 110 199 168 b 406 633 199 488 244 633 b 561 560 490 633 529 593 z "},"d":{"ha":753,"x_min":0,"x_max":0,"o":"m 486 1008 b 517 825 501 965 517 919 l 517 696 b 418 711 488 704 463 711 b 31 308 214 711 31 517 b 304 0 31 122 164 0 b 517 121 408 0 464 63 l 517 0 l 679 0 b 654 121 654 74 654 88 l 654 825 b 679 1047 654 942 668 999 z m 517 138 b 428 107 499 124 475 107 b 185 367 400 107 185 115 b 244 579 185 474 215 529 b 382 625 286 604 324 625 b 517 569 456 625 493 592 z "},"e":{"ha":622,"x_min":0,"x_max":0,"o":"m 569 176 b 379 119 488 139 438 119 b 201 339 218 119 206 289 l 585 347 b 576 515 585 426 586 457 b 342 726 556 654 461 726 b 50 351 171 726 50 593 b 340 0 50 188 108 0 b 501 32 408 0 457 17 z m 197 432 b 350 639 208 556 246 639 b 494 432 450 639 499 564 z "},"f":{"ha":449,"x_min":0,"x_max":0,"o":"m 422 714 l 264 714 l 264 806 b 358 949 264 849 264 949 b 464 878 421 949 447 913 b 492 1033 474 944 478 964 b 360 1051 454 1042 413 1051 b 121 767 121 1051 121 843 l 121 724 b 49 621 93 679 83 665 l 121 618 l 121 188 b 81 0 121 111 114 61 l 303 3 b 264 176 282 42 264 76 l 264 618 l 422 618 z "},"g":{"ha":681,"x_min":0,"x_max":0,"o":"m 669 693 l 472 693 b 329 735 438 715 406 735 b 46 458 238 735 46 690 b 199 260 46 356 110 285 b 124 208 176 240 156 222 b 33 125 60 178 33 153 b 181 39 33 67 107 53 b 33 -79 146 -1 128 -22 l 33 -137 b 58 -179 33 -156 39 -168 l 138 -225 l 282 -225 b 493 -186 363 -225 429 -224 b 621 1 539 -158 621 -93 b 553 124 621 51 596 100 b 329 144 515 144 489 144 b 203 154 299 144 213 144 b 189 192 193 163 189 182 b 221 256 189 208 200 228 b 300 250 244 253 267 250 b 581 458 474 250 581 333 b 539 596 581 518 557 561 l 669 596 z m 336 325 b 183 507 235 321 183 411 b 299 654 183 603 235 654 b 447 458 388 654 447 546 b 367 326 447 382 399 349 z m 363 40 b 479 -29 413 40 479 36 b 294 -122 479 -114 351 -122 b 171 -40 182 -122 171 -61 b 203 36 171 -4 189 18 z "},"h":{"ha":753,"x_min":0,"x_max":0,"o":"m 86 1010 b 119 781 111 933 119 893 l 119 253 b 78 0 119 100 100 53 l 276 0 b 253 244 261 54 253 81 l 253 551 b 381 594 288 572 326 594 b 493 542 411 594 465 581 b 514 425 515 510 514 469 l 514 151 b 493 -1 514 106 514 75 l 663 -1 b 647 163 647 71 647 90 l 647 446 b 626 622 649 518 650 571 b 471 721 601 682 535 721 b 328 653 386 721 353 682 l 253 567 l 253 765 b 281 1047 253 869 265 947 z "},"i":{"ha":361,"x_min":0,"x_max":0,"o":"m 68 729 b 106 546 96 672 106 639 l 106 210 b 63 0 106 67 94 49 l 286 0 b 244 201 267 32 244 69 l 244 547 b 279 729 244 664 261 694 z m 175 1038 b 79 933 133 1038 79 1006 b 178 826 79 868 124 826 b 276 931 247 826 276 890 b 175 1038 276 979 238 1038 z "},"j":{"ha":361,"x_min":0,"x_max":0,"o":"m 67 729 b 118 556 118 646 118 624 l 118 63 b 17 -224 118 -86 90 -135 l 144 -224 b 256 63 176 -185 256 -89 l 256 574 b 304 729 256 643 276 681 z m 183 1035 b 81 932 126 1035 81 990 b 183 829 81 875 126 829 b 286 932 240 829 286 875 b 183 1035 286 990 239 1035 z "},"k":{"ha":708,"x_min":0,"x_max":0,"o":"m 90 1019 b 117 857 117 924 117 889 l 117 199 b 81 0 117 101 111 57 l 281 0 b 253 165 258 43 253 117 l 253 394 l 414 129 b 463 0 454 63 457 40 l 686 0 b 536 199 642 44 593 103 l 408 414 l 518 556 b 686 729 572 626 583 636 l 476 729 b 435 633 474 703 472 682 l 253 396 l 253 825 b 281 1057 253 918 264 989 z "},"l":{"ha":361,"x_min":0,"x_max":0,"o":"m 86 1010 b 117 847 106 950 117 914 l 115 165 b 63 0 115 97 78 28 l 299 0 b 254 215 261 83 254 113 l 254 813 b 279 1049 254 874 261 957 z "},"m":{"ha":1114,"x_min":0,"x_max":0,"o":"m 85 729 b 114 582 100 693 114 658 l 114 115 b 85 0 114 63 107 46 l 282 0 b 251 121 251 49 251 74 l 251 551 b 385 625 293 592 331 625 b 468 578 417 625 447 607 b 486 479 486 553 486 522 l 486 119 b 458 0 486 50 479 35 l 651 0 b 626 119 633 36 626 60 l 626 550 b 750 625 650 579 686 625 b 861 521 804 625 861 583 l 861 108 b 840 0 861 50 861 44 l 1021 0 b 999 108 999 47 999 65 l 999 531 b 979 642 999 567 999 606 b 822 732 969 661 928 732 b 682 671 792 732 728 728 b 626 569 672 657 635 585 b 451 732 618 608 589 732 b 314 669 443 732 365 732 b 251 569 303 656 261 585 l 251 729 z "},"n":{"ha":767,"x_min":0,"x_max":0,"o":"m 253 588 l 254 729 l 97 729 b 117 613 104 694 117 632 l 117 222 b 81 0 117 147 111 69 l 265 0 b 253 161 256 61 253 85 l 253 575 b 382 617 286 597 314 617 b 514 522 489 617 514 547 l 514 121 b 492 0 514 85 514 58 l 678 0 b 651 125 657 49 651 67 l 651 544 b 468 735 651 681 533 735 b 357 701 421 735 386 717 z "},"o":{"ha":753,"x_min":0,"x_max":0,"o":"m 360 736 b 36 335 240 700 36 638 b 360 -11 36 82 218 -11 b 714 388 449 -11 714 71 b 360 736 714 603 558 743 z m 457 93 b 185 393 324 82 185 185 b 361 638 185 546 267 638 b 583 358 490 638 583 506 b 457 93 583 201 506 132 z "},"p":{"ha":753,"x_min":0,"x_max":0,"o":"m 76 729 b 118 508 96 692 118 649 l 118 -39 b 76 -221 118 -147 107 -169 l 300 -221 b 258 -22 265 -156 258 -124 l 258 114 b 450 25 288 89 360 25 b 715 390 568 25 715 142 b 463 733 715 608 600 733 b 258 581 368 733 317 664 b 264 729 258 639 260 663 z m 258 567 b 386 618 288 589 326 618 b 569 389 435 618 569 588 b 371 132 569 181 451 132 b 258 161 321 132 288 147 z "},"q":{"ha":753,"x_min":0,"x_max":0,"o":"m 671 -226 b 639 -49 640 -144 639 -133 l 639 564 b 657 728 639 629 638 649 b 510 738 618 732 571 738 b 47 315 224 738 47 576 b 286 17 47 97 183 17 b 408 53 326 17 349 26 l 501 151 l 501 -49 b 461 -226 501 -144 488 -174 z m 501 164 b 390 146 465 154 433 146 b 197 372 242 146 197 265 b 400 640 197 557 297 640 b 501 626 439 640 471 633 z "},"r":{"ha":564,"x_min":0,"x_max":0,"o":"m 96 728 b 119 601 119 658 119 628 l 119 139 b 83 0 119 69 113 46 l 296 0 b 260 171 271 42 260 65 l 260 519 b 404 583 288 546 328 583 b 515 531 458 583 478 565 l 539 706 b 472 724 517 717 503 724 b 260 539 353 724 303 622 l 260 628 b 267 728 260 675 260 690 z "},"s":{"ha":478,"x_min":0,"x_max":0,"o":"m 438 696 b 299 726 386 715 356 726 b 56 522 125 726 56 603 b 194 313 56 406 147 343 b 310 176 271 264 310 239 b 203 78 310 131 278 78 b 43 213 144 78 110 117 l 33 25 b 208 -1 122 -1 190 -1 b 446 208 364 -1 446 85 b 321 410 446 310 396 360 b 197 547 226 472 197 492 b 303 644 197 599 238 644 b 438 581 367 644 407 607 z "},"t":{"ha":463,"x_min":0,"x_max":0,"o":"m 260 711 l 260 864 b 25 619 68 667 46 644 l 119 619 l 119 217 b 115 115 119 171 115 146 b 254 -4 115 76 144 -4 b 374 11 294 -4 326 1 l 453 113 b 358 97 403 101 382 97 b 267 157 313 97 275 132 b 260 358 260 176 260 194 l 260 619 l 444 619 l 444 711 z "},"u":{"ha":767,"x_min":0,"x_max":0,"o":"m 78 728 b 115 543 101 682 117 646 l 113 132 b 290 -1 171 10 265 -1 b 394 28 333 -1 374 17 l 504 147 b 499 0 504 79 504 67 l 669 0 b 644 171 660 26 644 75 l 644 593 b 681 728 644 650 660 683 l 476 725 b 504 557 503 665 504 629 l 504 161 b 368 111 472 139 428 111 b 254 207 353 111 274 111 l 254 607 b 289 728 254 672 264 688 z "},"v":{"ha":651,"x_min":0,"x_max":0,"o":"m 18 729 b 90 601 43 696 65 665 b 147 428 100 578 138 456 l 264 0 l 379 0 l 540 549 b 625 729 571 654 604 700 l 472 729 b 446 556 476 656 449 565 l 346 217 l 250 567 b 225 676 231 638 225 660 b 232 729 225 690 226 696 z "},"w":{"ha":940,"x_min":0,"x_max":0,"o":"m 25 729 b 100 553 60 674 82 635 l 221 0 l 326 0 l 474 510 l 601 0 l 707 0 l 849 558 b 925 729 861 613 865 625 l 765 729 b 774 671 771 707 774 694 b 760 579 774 635 767 607 l 678 254 l 558 729 l 444 729 l 304 258 l 238 565 b 226 665 233 585 226 619 b 235 729 226 692 231 710 z "},"x":{"ha":651,"x_min":0,"x_max":0,"o":"m 31 729 b 122 597 67 688 92 650 l 258 358 l 151 181 b 6 0 99 93 39 35 l 203 0 b 254 146 207 54 226 99 l 318 256 l 389 129 b 443 0 410 92 436 44 l 636 0 b 536 140 590 53 572 76 l 396 390 l 513 590 b 618 729 560 671 589 700 l 443 729 b 396 601 439 682 431 661 l 331 488 l 258 624 b 222 729 229 679 226 699 z "},"y":{"ha":767,"x_min":0,"x_max":0,"o":"m 43 729 b 175 476 111 633 164 503 b 333 86 229 346 293 190 b 225 -117 279 -29 250 -86 l 135 -225 l 271 -225 l 351 -168 b 493 115 372 -153 464 35 l 588 369 b 756 729 683 626 707 660 l 539 729 b 411 269 539 638 538 615 l 268 617 b 238 729 253 653 243 690 z "},"z":{"ha":535,"x_min":0,"x_max":0,"o":"m 181 299 b 24 0 142 208 69 67 l 481 0 l 522 140 b 349 86 471 100 432 86 l 238 86 b 292 233 263 160 286 222 l 465 629 b 504 711 476 657 479 661 l 74 728 l 36 588 b 208 636 74 614 118 642 l 322 629 z "},"{":{"ha":463,"x_min":0,"x_max":0,"o":"m 171 -22 b 406 -225 171 -196 243 -225 l 406 -208 b 308 -31 332 -186 308 -131 l 308 228 b 201 413 308 331 293 388 l 201 415 b 308 600 293 440 308 497 l 308 858 b 406 1036 308 958 332 1014 l 406 1053 b 171 850 243 1053 171 1024 l 171 578 b 69 414 171 486 151 440 b 171 250 151 388 171 342 z "},"|":{"ha":753,"x_min":0,"x_max":0,"o":"m 319 -347 l 433 -347 l 433 1314 l 319 1314 z "},"}":{"ha":463,"x_min":0,"x_max":0,"o":"m 292 250 b 393 414 292 342 311 388 b 292 578 311 440 292 486 l 292 850 b 57 1053 292 1024 219 1053 l 57 1036 b 154 858 131 1014 154 958 l 154 600 b 261 415 154 497 169 440 l 261 413 b 154 228 169 388 154 331 l 154 -31 b 57 -208 154 -131 131 -186 l 57 -225 b 292 -22 219 -225 292 -196 z "},"~":{"ha":811,"x_min":0,"x_max":0,"o":"m 135 251 b 254 343 163 299 201 343 b 401 296 310 343 354 318 b 557 249 450 274 499 249 b 740 371 643 246 696 301 l 679 443 b 557 354 649 399 610 354 b 418 401 510 354 465 376 b 254 449 372 426 321 449 b 71 324 168 449 115 393 z "},"¡":{"ha":304,"x_min":0,"x_max":0,"o":"m 281 -222 b 222 40 249 -174 222 -135 l 222 326 b 160 535 222 413 207 442 l 146 535 b 82 308 81 415 81 379 l 82 21 b 18 -222 82 -139 44 -187 z m 154 828 b 44 717 94 828 44 779 b 154 607 44 657 94 607 b 265 717 215 607 265 657 b 154 828 265 779 215 828 z "},"¢":{"ha":593,"x_min":0,"x_max":0,"o":"m 574 726 b 469 739 539 732 525 735 l 558 996 l 458 992 l 371 736 b 53 357 125 708 53 494 b 154 108 53 229 107 154 l 44 -212 l 144 -208 l 233 51 b 389 15 271 33 308 15 b 508 33 443 15 475 24 l 583 150 b 428 122 542 138 490 122 b 276 178 415 122 342 122 l 438 644 b 561 572 494 633 518 618 z m 214 282 b 199 393 207 306 199 338 b 336 636 199 429 201 585 z "},"£":{"ha":767,"x_min":0,"x_max":0,"o":"m 693 1010 b 507 1049 653 1026 597 1049 b 253 922 472 1049 336 1049 b 182 589 201 844 190 756 b 19 617 89 585 60 597 l 19 447 b 182 474 47 461 76 475 b 28 0 167 247 106 133 l 693 0 l 757 176 b 250 106 621 136 499 100 b 331 474 296 217 326 354 b 508 447 435 475 465 465 l 515 617 b 336 589 454 590 444 589 b 374 832 342 671 351 789 b 515 917 397 876 439 917 b 686 840 596 917 649 872 z "},"⁄":{"ha":188,"x_min":0,"x_max":0,"o":"m -262 -29 l -168 -29 l 450 1051 l 357 1051 z "},"¥":{"ha":868,"x_min":0,"x_max":0,"o":"m 656 1042 b 603 881 660 992 646 957 l 450 604 l 294 888 b 249 1042 268 935 242 979 l 24 1039 b 146 888 68 1003 94 979 l 308 597 b 103 610 286 597 204 597 l 103 469 b 328 482 153 476 210 482 l 375 482 l 375 347 l 306 347 b 103 358 292 347 204 347 l 103 218 b 328 231 153 225 210 231 l 375 231 l 375 176 b 347 0 375 69 364 39 l 546 0 b 517 124 517 54 517 114 l 517 231 l 569 231 b 765 218 626 231 719 225 l 765 358 b 590 347 724 351 635 347 l 517 347 l 517 482 l 569 482 b 765 469 626 482 719 476 l 765 610 b 581 597 724 603 632 597 l 768 924 b 844 1039 776 939 807 990 z "},"ƒ":{"ha":796,"x_min":0,"x_max":0,"o":"m 631 665 l 472 665 l 501 808 b 628 951 521 904 569 951 b 711 879 675 951 694 921 b 769 1036 732 947 740 967 b 642 1053 733 1044 693 1053 b 344 769 403 1053 360 844 l 325 675 b 231 572 288 631 275 618 l 303 569 l 231 226 l 188 22 b 72 -121 167 -78 131 -121 b -3 -50 33 -121 10 -89 b -61 -207 -24 -118 -32 -137 b 46 -224 -25 -217 1 -224 b 344 60 286 -224 329 -15 l 451 569 l 610 569 z "},"§":{"ha":550,"x_min":0,"x_max":0,"o":"m 467 1024 b 333 1047 432 1035 392 1047 b 33 789 154 1047 33 921 b 192 586 33 669 146 611 l 106 525 b 42 403 60 488 42 457 b 228 190 42 351 53 274 b 360 54 299 157 360 128 b 250 -54 360 -10 307 -54 b 63 72 147 -54 93 26 l 63 -132 b 235 -176 149 -176 221 -176 b 508 68 350 -176 508 -94 b 353 281 508 194 426 240 l 458 333 b 519 453 500 354 519 396 b 361 643 519 551 453 596 b 201 808 267 690 201 724 b 317 926 201 874 254 926 b 467 835 385 926 436 869 z m 206 578 b 353 493 228 564 335 508 b 396 413 378 472 396 446 b 342 286 396 372 379 342 b 165 474 231 347 165 385 b 206 578 165 518 188 553 z "},"¤":{"ha":956,"x_min":0,"x_max":0,"o":"m 478 626 b 664 432 586 626 664 535 b 478 240 664 329 586 240 b 294 432 372 240 294 329 b 478 626 294 535 372 626 z m 96 125 l 174 50 l 307 186 b 478 135 350 154 411 135 b 649 186 544 135 608 157 l 785 50 l 860 125 l 724 261 b 778 432 756 304 778 365 b 724 603 778 499 756 560 l 860 739 l 785 814 l 649 678 b 478 732 608 710 547 732 b 307 678 411 732 350 710 l 174 814 l 96 739 l 232 603 b 181 432 203 563 181 499 b 232 261 181 365 200 307 z "},"'":{"ha":261,"x_min":0,"x_max":0,"o":"m 92 699 l 168 699 l 200 885 l 200 1051 l 61 1051 l 61 885 z "},"“":{"ha":622,"x_min":0,"x_max":0,"o":"m 504 721 b 485 811 492 756 485 778 b 586 1042 485 903 550 993 l 453 1042 b 288 721 322 881 299 789 z m 225 721 b 206 811 213 756 206 778 b 307 1042 206 903 271 993 l 175 1042 b 8 721 43 881 19 789 z "},"«":{"ha":681,"x_min":0,"x_max":0,"o":"m 176 707 l 31 411 l 176 115 l 329 115 l 203 411 l 329 707 z m 503 707 l 354 411 l 503 115 l 657 115 l 526 411 l 654 707 z "},"‹":{"ha":361,"x_min":0,"x_max":0,"o":"m 181 707 l 35 411 l 181 115 l 335 115 l 207 411 l 335 707 z "},"›":{"ha":361,"x_min":0,"x_max":0,"o":"m 181 707 l 26 707 l 154 411 l 26 115 l 181 115 l 326 411 z "},"–":{"ha":694,"x_min":0,"x_max":0,"o":"m 24 331 b 268 344 78 338 139 344 l 454 344 b 671 331 517 344 618 338 l 671 492 b 479 479 624 485 526 479 l 246 479 b 24 492 231 479 135 479 z "},"†":{"ha":767,"x_min":0,"x_max":0,"o":"m 275 1042 b 308 765 300 968 308 888 l 308 672 l 239 672 b 18 692 121 672 85 679 l 18 518 b 219 538 54 528 92 538 l 308 538 l 308 75 b 275 -217 308 43 308 -103 l 493 -217 b 461 24 460 -111 460 -46 l 461 538 l 578 538 b 754 518 603 538 683 536 l 754 692 b 557 672 697 679 654 672 l 461 672 l 461 799 b 496 1042 461 839 465 947 z "},"‡":{"ha":767,"x_min":0,"x_max":0,"o":"m 272 1042 b 307 761 307 917 307 794 l 307 708 l 190 708 b 15 729 90 714 79 715 l 15 553 b 221 575 103 574 142 575 l 307 575 l 307 254 l 183 254 b 15 272 103 254 88 257 l 15 99 b 203 118 103 119 146 119 l 307 118 l 307 35 b 272 -217 307 17 307 -115 l 496 -217 b 461 24 475 -150 461 -97 l 461 118 l 579 118 b 753 99 660 118 719 108 l 753 276 b 557 254 679 260 649 254 l 461 254 l 461 575 l 568 575 b 753 553 635 575 692 569 l 753 729 b 568 708 721 721 668 708 l 461 708 l 461 794 b 496 1042 461 914 468 957 z "},"·":{"ha":333,"x_min":0,"x_max":0,"o":"m 168 638 b 57 526 107 638 57 589 b 168 415 57 465 107 415 b 279 526 229 415 279 465 b 168 638 279 589 229 638 z "},"¶":{"ha":753,"x_min":0,"x_max":0,"o":"m 331 1044 b 42 767 150 1044 42 914 b 294 481 42 617 128 489 l 294 22 b 292 -81 294 -25 294 -58 b 186 -119 286 -108 239 -111 l 186 -153 l 408 -153 l 408 972 l 489 972 l 489 -153 l 711 -153 l 711 -119 b 606 -81 658 -111 611 -108 b 603 22 603 -64 603 -25 l 603 869 b 608 978 603 939 603 964 b 711 1011 619 1000 658 1006 l 711 1044 z "},"•":{"ha":492,"x_min":0,"x_max":0,"o":"m 44 486 b 246 282 44 369 135 282 b 447 486 357 282 447 372 b 246 685 447 597 357 685 b 44 486 135 685 44 597 z "},"‚":{"ha":333,"x_min":0,"x_max":0,"o":"m 113 207 b 132 115 125 172 132 149 b 31 -114 132 25 67 -65 l 164 -114 b 329 207 294 47 318 138 z "},"„":{"ha":622,"x_min":0,"x_max":0,"o":"m 118 207 b 138 115 131 172 138 149 b 36 -114 138 25 71 -65 l 168 -114 b 333 207 300 47 324 138 z m 397 207 b 417 115 410 172 417 149 b 315 -114 417 25 350 -65 l 447 -114 b 613 207 579 47 601 138 z "},"”":{"ha":622,"x_min":0,"x_max":0,"o":"m 118 1042 b 138 950 131 1007 138 983 b 36 721 138 860 71 769 l 168 721 b 333 1042 300 882 324 972 z m 397 1042 b 417 950 410 1007 417 983 b 315 721 417 860 350 769 l 447 721 b 613 1042 579 882 601 972 z "},"»":{"ha":681,"x_min":0,"x_max":0,"o":"m 504 707 l 350 707 l 478 411 l 350 115 l 504 115 l 650 411 z m 178 707 l 26 707 l 153 411 l 22 115 l 178 115 l 325 411 z "},"…":{"ha":1389,"x_min":0,"x_max":0,"o":"m 232 214 b 119 103 169 214 119 164 b 232 -10 119 40 169 -10 b 343 103 293 -10 343 40 b 232 214 343 164 292 214 z m 694 214 b 582 103 632 214 582 164 b 694 -10 582 40 632 -10 b 806 103 756 -10 806 40 b 694 214 806 164 754 214 z m 1157 214 b 1044 103 1094 214 1044 164 b 1157 -10 1044 40 1094 -10 b 1268 103 1218 -10 1268 40 b 1157 214 1268 164 1217 214 z "},"‰":{"ha":1779,"x_min":0,"x_max":0,"o":"m 888 399 b 1006 247 949 399 1006 349 b 889 83 1006 221 1006 83 b 774 236 818 83 774 143 b 888 399 774 357 833 399 z m 889 506 b 646 240 743 506 646 392 b 890 -26 646 89 747 -26 b 1133 240 1040 -26 1133 90 b 889 506 1133 400 1032 506 z m 807 1049 l 331 -26 l 422 -26 l 897 1049 z m 333 1051 b 90 786 188 1051 90 938 b 335 519 90 635 192 519 b 579 786 486 519 579 636 b 333 1051 579 946 478 1051 z m 333 944 b 451 793 394 944 451 894 b 333 629 451 767 451 629 b 218 782 264 629 218 689 b 333 944 218 903 278 944 z m 1443 506 b 1200 240 1297 506 1200 392 b 1444 -26 1200 89 1301 -26 b 1689 240 1596 -26 1689 90 b 1443 506 1689 400 1588 506 z m 1443 399 b 1561 247 1504 399 1561 349 b 1443 83 1561 221 1561 83 b 1328 236 1374 83 1328 143 b 1443 399 1328 357 1388 399 z "},"¿":{"ha":593,"x_min":0,"x_max":0,"o":"m 575 -42 b 413 -104 536 -69 492 -104 b 210 100 313 -104 210 -29 b 424 332 210 265 343 307 b 475 403 457 343 475 358 b 468 535 475 458 471 508 l 453 535 b 279 414 424 481 414 472 b 54 94 217 386 54 317 b 408 -226 54 -61 164 -226 b 565 -196 489 -226 525 -211 z m 449 836 b 339 726 388 836 339 788 b 450 617 339 668 388 617 b 560 726 511 617 560 667 b 449 836 560 788 510 836 z "},"`":{"ha":463,"x_min":0,"x_max":0,"o":"m 306 806 b 235 1038 261 894 242 963 l 101 1038 b 263 806 117 989 161 882 z "},"´":{"ha":463,"x_min":0,"x_max":0,"o":"m 228 1038 b 157 806 221 963 201 894 l 200 806 b 361 1038 301 882 346 989 z "},"ˆ":{"ha":463,"x_min":0,"x_max":0,"o":"m 143 1042 b 53 804 121 908 76 842 l 103 804 b 231 956 171 871 194 900 b 361 804 269 894 299 861 l 411 804 b 319 1042 383 849 332 942 z "},"˜":{"ha":463,"x_min":0,"x_max":0,"o":"m 399 1011 b 342 939 404 975 392 939 b 254 969 328 939 300 938 b 139 1013 204 1003 169 1013 b -24 829 78 1013 -19 960 l 64 829 b 121 901 58 865 71 901 b 208 871 135 901 163 903 b 324 828 258 838 293 828 b 486 1011 385 828 482 881 z "},"¯":{"ha":463,"x_min":0,"x_max":0,"o":"m 3 832 l 461 832 l 461 957 l 3 957 z "},"˘":{"ha":463,"x_min":0,"x_max":0,"o":"m 3 1046 b 231 799 10 911 83 799 b 461 1046 381 799 454 917 l 419 1046 b 229 924 392 928 268 924 b 40 1046 164 924 71 942 z "},"˙":{"ha":463,"x_min":0,"x_max":0,"o":"m 189 1008 b 143 832 186 942 165 885 l 256 832 b 319 1008 275 863 311 931 z "},"¨":{"ha":463,"x_min":0,"x_max":0,"o":"m 49 1008 b 3 832 46 942 25 885 l 115 832 b 179 1008 135 863 171 931 z m 331 1008 b 283 832 328 942 307 885 l 397 832 b 460 1008 415 863 453 931 z "},"˚":{"ha":463,"x_min":0,"x_max":0,"o":"m 232 1026 b 125 919 175 1026 125 981 b 232 814 125 861 174 814 b 338 919 289 814 338 861 b 232 1026 338 981 289 1026 z m 232 978 b 288 921 263 978 288 951 b 232 864 288 890 263 864 b 175 921 200 864 175 889 b 232 978 175 953 201 978 z "},"¸":{"ha":463,"x_min":0,"x_max":0,"o":"m 94 -210 b 197 -231 122 -219 151 -231 b 349 -112 292 -231 349 -179 b 229 1 349 -58 313 1 b 154 -12 200 1 176 -6 l 147 -76 b 200 -64 167 -69 182 -64 b 256 -114 217 -64 256 -75 b 192 -165 256 -137 239 -165 b 129 -153 168 -165 153 -160 z "},"˝":{"ha":463,"x_min":0,"x_max":0,"o":"m 124 1038 b 53 806 117 963 97 894 l 96 806 b 257 1038 197 882 242 989 z m 333 1038 b 263 806 326 963 307 894 l 306 806 b 467 1038 407 882 451 989 z "},"˛":{"ha":463,"x_min":0,"x_max":0,"o":"m 222 13 b 151 -118 182 -28 151 -69 b 276 -232 151 -190 215 -232 b 356 -208 310 -232 331 -221 l 329 -149 b 288 -168 315 -160 306 -168 b 244 -111 261 -168 244 -143 b 297 11 244 -62 279 -14 z "},"ˇ":{"ha":463,"x_min":0,"x_max":0,"o":"m 53 1042 b 143 804 76 1004 121 938 l 319 804 b 411 1042 332 904 383 997 l 361 1042 b 231 890 299 985 269 951 b 101 1042 194 946 171 975 z "},"—":{"ha":1389,"x_min":0,"x_max":0,"o":"m 25 331 b 269 344 79 338 140 344 l 1147 344 b 1364 331 1210 344 1311 338 l 1364 492 b 1172 479 1317 485 1221 479 l 247 479 b 25 492 232 479 136 479 z "},"Æ":{"ha":1288,"x_min":0,"x_max":0,"o":"m 640 1042 l 158 213 b 18 0 146 192 93 104 l 282 0 b 371 307 276 108 319 211 l 454 460 l 690 460 l 690 256 b 651 0 690 139 668 61 l 1176 0 l 1264 189 b 846 100 1118 138 1039 121 l 846 460 l 893 460 b 1078 418 1003 460 1042 438 l 1157 585 l 846 585 l 846 944 b 1144 879 989 942 1054 924 l 1213 1042 z m 521 585 l 690 900 l 690 585 z "},"ª":{"ha":406,"x_min":0,"x_max":0,"o":"m 367 614 b 347 675 357 642 353 651 l 344 924 b 329 990 344 953 344 965 b 190 1051 318 1007 278 1051 b 149 1049 185 1051 164 1051 l 83 1035 l 54 944 b 154 981 101 971 124 981 b 229 954 183 981 213 969 b 243 910 242 943 243 933 l 243 888 b 97 824 224 876 119 835 b 13 718 58 803 13 767 b 140 614 13 650 90 614 b 179 618 154 614 174 618 l 243 667 l 243 614 z m 243 689 b 203 683 232 686 222 683 b 124 743 164 683 124 693 b 139 803 124 767 131 782 l 243 803 z "},"Ł":{"ha":694,"x_min":0,"x_max":0,"o":"m 288 603 l 289 785 b 331 1040 290 939 308 986 l 96 1040 b 132 794 113 994 132 944 l 132 493 l 38 426 l 38 288 l 132 356 l 132 335 b 90 0 132 107 117 67 l 600 0 l 686 196 b 285 106 574 151 471 122 l 288 464 l 485 604 l 485 740 z "},"Ø":{"ha":1172,"x_min":0,"x_max":0,"o":"m 268 97 b 593 -7 378 15 493 -7 b 1138 525 889 -7 1138 200 b 1003 892 1138 643 1101 782 l 1081 975 l 997 1051 l 917 967 b 619 1050 883 988 786 1050 b 49 525 274 1050 49 785 b 185 174 49 413 92 278 l 94 75 l 178 -1 z m 886 765 b 976 486 938 693 976 583 b 636 106 976 325 869 106 b 372 210 547 106 450 140 z m 297 296 b 224 546 249 371 224 465 b 568 939 224 779 375 939 b 808 849 639 939 729 915 z "},"Œ":{"ha":1331,"x_min":0,"x_max":0,"o":"m 1249 1042 l 794 1042 b 686 1049 779 1042 732 1044 b 575 1054 639 1051 593 1054 b 25 469 260 1054 25 806 b 226 60 25 215 160 103 b 514 -10 299 13 381 -10 b 625 -4 531 -10 578 -7 b 738 0 672 -3 721 0 l 1235 0 l 1304 176 b 893 101 1122 106 1057 97 l 893 488 b 1146 451 1026 490 1076 479 l 1206 589 l 893 589 l 893 943 b 1197 885 1035 950 1121 921 z m 738 131 b 519 97 661 113 596 97 b 183 539 322 97 183 288 b 514 940 183 774 314 940 b 738 906 604 940 674 922 z "},"º":{"ha":478,"x_min":0,"x_max":0,"o":"m 226 1051 b 14 811 149 1029 14 992 b 229 601 14 658 135 601 b 464 842 293 601 464 656 b 226 1051 464 968 365 1056 z m 288 672 b 125 844 211 667 125 724 b 231 985 125 929 171 985 b 364 825 306 985 364 910 b 288 672 364 732 314 692 z "},"æ":{"ha":983,"x_min":0,"x_max":0,"o":"m 110 578 b 244 621 136 593 186 621 b 367 581 285 621 338 606 b 404 458 404 550 404 528 b 189 356 342 424 326 417 b 39 167 153 339 39 274 b 222 1 39 68 136 1 b 281 10 239 1 251 3 l 438 129 b 686 1 465 85 517 1 b 847 35 765 1 807 18 l 901 149 b 733 103 858 128 808 103 b 576 186 690 103 618 119 b 538 338 544 238 540 293 l 929 349 b 901 590 929 436 931 526 b 688 728 856 690 761 728 b 492 647 615 728 544 697 b 296 726 422 726 321 726 b 146 697 238 726 189 711 z m 540 432 b 693 639 542 490 546 639 b 838 432 839 639 838 493 z m 404 114 b 319 104 381 110 354 104 b 188 214 203 104 188 161 b 211 322 188 263 199 293 l 404 322 z "},"ı":{"ha":361,"x_min":0,"x_max":0,"o":"m 68 729 b 106 547 96 672 106 639 l 106 210 b 63 0 106 67 94 50 l 286 0 b 244 201 267 32 244 69 l 244 547 b 279 729 244 664 261 694 z "},"ł":{"ha":361,"x_min":0,"x_max":0,"o":"m 318 736 l 254 668 l 254 813 b 279 1049 254 874 263 957 l 86 1010 b 117 847 106 950 117 914 l 117 517 l 53 449 l 53 313 l 117 381 l 117 165 b 63 0 117 97 78 28 l 299 0 b 254 215 261 83 254 113 l 254 532 l 318 600 z "},"ø":{"ha":767,"x_min":0,"x_max":0,"o":"m 164 60 b 368 -10 232 6 304 -10 b 722 389 457 -10 722 72 b 660 600 722 489 694 551 l 722 668 l 653 733 l 593 668 b 392 738 569 686 501 738 b 192 663 339 738 229 689 b 44 336 68 572 44 432 b 100 129 44 221 79 161 l 39 63 l 108 0 z m 564 496 b 592 360 569 481 592 432 b 465 94 592 204 515 133 b 268 174 351 85 288 153 z m 217 257 b 193 394 200 299 193 346 b 369 639 193 544 272 639 b 510 576 446 639 490 597 z "},"œ":{"ha":1172,"x_min":0,"x_max":0,"o":"m 1101 149 b 931 99 1067 129 1013 99 b 728 343 754 99 736 271 l 1126 350 b 1122 504 1128 379 1131 435 b 874 735 1094 735 896 735 b 644 608 771 735 699 685 b 383 736 572 696 485 736 b 188 664 321 736 226 692 b 39 335 125 618 39 532 b 367 -3 39 136 179 -3 b 625 125 446 -3 547 40 b 869 -3 654 78 706 -3 b 1044 32 949 -3 1001 17 z m 729 435 b 886 647 736 504 749 647 b 1028 540 931 647 1000 628 b 1038 435 1035 521 1039 499 z m 457 99 b 188 400 279 100 188 238 b 363 638 188 563 279 638 b 588 360 497 638 588 486 b 457 99 588 256 542 157 z "},"ß":{"ha":753,"x_min":0,"x_max":0,"o":"m 271 528 l 321 531 b 553 283 361 531 553 513 b 408 99 553 219 536 99 b 325 110 378 99 354 103 l 367 1 b 415 -4 385 -3 397 -4 b 708 342 613 -4 708 197 b 517 619 708 556 568 603 b 664 832 589 663 664 731 b 376 1049 664 903 594 1049 b 118 703 115 1049 117 842 l 118 217 b 74 1 118 101 115 82 l 293 1 b 256 250 258 88 256 119 l 256 758 b 363 949 257 871 278 949 b 506 794 444 949 506 876 b 321 622 506 742 481 656 z "},"¬":{"ha":926,"x_min":0,"x_max":0,"o":"m 700 150 l 814 150 l 814 549 l 114 549 l 114 435 l 700 435 z "},"µ":{"ha":767,"x_min":0,"x_max":0,"o":"m 510 147 b 504 0 510 71 510 67 l 675 0 b 650 171 665 26 650 75 l 650 593 b 686 728 650 650 665 683 l 482 725 b 510 557 508 665 510 629 l 510 161 b 374 111 478 139 433 111 b 260 207 358 111 279 111 l 260 607 b 294 728 260 672 269 688 l 82 728 b 119 544 103 685 119 647 l 119 -53 b 92 -222 119 -126 118 -161 l 299 -224 b 260 -89 278 -179 260 -146 l 260 13 b 311 0 272 4 292 0 b 400 29 347 0 378 18 z "},"™":{"ha":1389,"x_min":0,"x_max":0,"o":"m 343 1013 l 410 1013 b 500 922 465 1013 489 971 l 531 922 l 531 1044 l 36 1044 l 36 922 l 67 922 b 158 1013 78 971 103 1013 l 225 1013 l 225 583 b 154 514 225 524 226 521 l 154 483 l 413 483 l 413 514 b 343 583 342 521 343 524 z m 928 482 l 944 482 l 1151 896 l 1154 896 l 1154 583 b 1085 514 1154 524 1156 521 l 1085 483 l 1342 483 l 1342 514 b 1272 583 1271 521 1272 524 l 1272 943 b 1349 1014 1272 989 1285 1011 l 1349 1044 l 1190 1044 l 976 633 l 774 1044 l 589 1044 l 589 1014 b 686 943 631 1014 668 986 l 686 608 b 615 514 686 542 679 519 l 615 483 l 799 483 l 799 514 b 726 608 733 519 726 542 l 726 894 l 729 894 z "},"Ð":{"ha":882,"x_min":0,"x_max":0,"o":"m 13 463 b 113 472 42 467 74 469 l 113 317 b 71 0 113 125 93 65 l 322 0 b 864 511 657 0 864 240 b 760 822 864 613 836 724 b 179 1043 601 1025 371 1043 b 71 1038 133 1043 107 1040 b 113 757 83 989 113 901 l 113 588 b 13 594 86 588 50 590 z m 494 594 b 325 583 447 588 375 583 l 268 583 l 268 756 b 276 946 268 807 268 882 b 681 525 607 900 681 671 b 276 101 681 361 586 132 b 268 342 268 185 268 224 l 268 476 l 311 476 b 494 463 358 476 443 469 z "},"½":{"ha":1229,"x_min":0,"x_max":0,"o":"m 143 951 l 203 951 l 203 619 b 174 506 203 551 186 526 l 331 506 b 311 589 322 521 311 539 l 311 1051 l 286 1051 z m 849 331 b 833 394 836 363 833 376 b 918 472 833 443 874 472 b 999 406 943 472 999 460 b 946 303 999 378 983 351 b 696 6 924 274 753 69 l 696 -4 b 903 1 782 0 874 1 b 988 0 921 1 950 1 b 1115 -4 1025 0 1069 -1 l 1129 129 b 994 71 1067 71 1039 71 l 871 71 l 1006 232 b 1103 410 1092 335 1103 378 b 926 546 1103 472 1040 546 b 744 388 818 546 735 481 z m 203 -29 l 296 -29 l 917 1051 l 822 1051 z "},"±":{"ha":926,"x_min":0,"x_max":0,"o":"m 407 497 l 114 497 l 114 383 l 407 383 l 407 144 l 521 144 l 521 383 l 814 383 l 814 497 l 521 497 l 521 736 l 407 736 z m 114 -50 l 814 -50 l 814 64 l 114 64 z "},"Þ":{"ha":738,"x_min":0,"x_max":0,"o":"m 131 340 b 83 0 131 168 103 72 l 326 0 b 288 249 310 68 292 175 l 400 249 b 726 538 540 249 726 321 b 375 829 726 714 585 829 l 288 829 b 328 1042 292 907 303 968 l 90 1042 b 131 763 107 1003 131 947 z m 286 761 b 496 700 401 761 457 739 b 563 528 543 651 563 586 b 344 303 563 358 435 310 l 286 299 z "},"¼":{"ha":1229,"x_min":0,"x_max":0,"o":"m 928 544 l 761 347 b 671 260 754 339 714 293 l 671 196 l 924 196 l 924 136 b 901 0 924 68 911 26 l 1053 0 b 1029 131 1035 47 1033 72 l 1029 196 b 1135 178 1085 196 1094 194 l 1135 282 b 1053 263 1110 268 1099 263 l 1029 263 l 1029 544 z m 788 263 l 926 428 l 926 263 z m 143 951 l 203 951 l 203 618 b 174 506 203 551 186 525 l 331 506 b 311 588 322 519 311 539 l 311 1051 l 286 1051 z m 189 -31 l 282 -31 l 901 1051 l 808 1051 z "},"÷":{"ha":926,"x_min":0,"x_max":0,"o":"m 814 294 l 814 408 l 114 408 l 114 294 z m 364 639 b 465 539 364 585 411 539 b 564 639 518 539 564 589 b 464 739 564 693 518 739 b 364 639 411 739 364 694 z m 364 64 b 465 -36 364 10 411 -36 b 564 64 518 -36 564 14 b 464 164 564 118 518 164 b 364 64 411 164 364 119 z "},"¦":{"ha":753,"x_min":0,"x_max":0,"o":"m 319 -243 l 433 -243 l 433 243 l 319 243 z m 319 451 l 433 451 l 433 938 l 319 938 z "},"°":{"ha":550,"x_min":0,"x_max":0,"o":"m 276 1053 b 68 847 160 1053 68 961 b 276 639 68 731 160 639 b 482 847 390 639 482 731 b 276 1053 482 961 390 1053 z m 276 994 b 415 847 354 994 415 925 b 276 697 415 767 354 697 b 135 847 196 697 135 767 b 276 994 135 925 196 994 z "},"þ":{"ha":753,"x_min":0,"x_max":0,"o":"m 300 -221 b 258 -22 265 -156 258 -124 l 258 114 b 450 25 288 89 360 25 b 715 390 568 25 715 142 b 463 733 715 608 600 733 b 258 581 368 733 317 664 l 258 813 b 283 1049 258 874 265 957 l 88 1010 b 118 847 107 950 118 914 l 118 508 l 118 -39 b 76 -221 118 -147 107 -169 z m 258 567 b 386 618 288 589 326 618 b 569 389 435 618 569 588 b 371 132 569 181 451 132 b 258 161 321 132 288 147 z "},"¾":{"ha":1229,"x_min":0,"x_max":0,"o":"m 969 546 l 803 347 b 714 260 796 339 756 293 l 714 196 l 965 196 l 965 136 b 943 0 965 68 953 26 l 1094 0 b 1071 131 1076 47 1075 72 l 1071 196 b 1176 178 1126 196 1136 194 l 1176 282 b 1094 263 1151 268 1140 263 l 1071 263 l 1071 546 z m 829 263 l 968 429 l 968 263 z m 118 1047 l 115 917 b 300 981 156 961 174 981 b 389 975 351 981 371 978 b 324 874 369 944 339 894 l 236 758 b 336 743 282 757 306 756 b 399 657 367 731 399 697 b 297 567 399 617 367 567 b 186 667 272 567 204 574 l 99 560 b 289 501 176 503 260 501 b 494 668 443 501 494 610 b 381 806 494 682 494 767 b 540 1035 404 844 499 976 l 540 1047 z m 274 -31 l 367 -31 l 985 1053 l 892 1053 z "},"®":{"ha":1083,"x_min":0,"x_max":0,"o":"m 294 790 b 364 719 365 783 364 781 l 364 342 b 294 274 364 283 365 281 l 294 249 l 547 249 l 547 274 b 478 342 475 281 478 283 l 478 497 l 538 497 b 713 249 622 368 664 249 l 825 249 l 825 264 b 718 390 796 290 754 340 l 629 515 b 750 672 701 538 750 599 b 576 815 750 769 669 815 l 294 815 z m 478 783 l 535 783 b 631 665 590 783 631 753 b 535 529 631 592 604 529 l 478 529 z m 1063 521 b 543 1053 1063 817 836 1053 b 21 521 250 1053 21 817 b 543 -8 21 225 250 -8 b 1063 521 836 -8 1063 225 z m 121 521 b 543 978 121 767 306 978 b 963 521 781 978 963 767 b 543 67 963 275 778 67 b 121 521 306 67 121 275 z "},"−":{"ha":926,"x_min":0,"x_max":0,"o":"m 814 294 l 814 408 l 114 408 l 114 294 z "},"ð":{"ha":753,"x_min":0,"x_max":0,"o":"m 458 94 b 185 393 325 83 185 185 b 363 636 185 546 268 636 b 585 360 492 636 585 506 b 458 94 585 204 508 133 z m 221 786 l 397 856 b 529 689 450 807 494 747 b 361 735 481 726 425 736 b 36 335 240 699 36 636 b 361 -10 36 83 219 -10 b 717 432 415 -10 717 42 b 510 900 717 643 603 806 l 669 961 l 593 1021 l 443 961 b 314 1050 399 996 342 1036 l 147 1003 b 328 917 210 992 271 961 l 144 844 z "},"×":{"ha":926,"x_min":0,"x_max":0,"o":"m 386 351 l 138 103 l 215 25 l 463 275 l 713 25 l 790 103 l 540 351 l 790 600 l 713 678 l 463 429 l 215 678 l 138 600 z "},"©":{"ha":1083,"x_min":0,"x_max":0,"o":"m 1063 521 b 543 1053 1063 817 836 1053 b 21 521 250 1053 21 817 b 543 -8 21 225 250 -8 b 1063 521 836 -8 1063 225 z m 121 521 b 543 978 121 767 306 978 b 963 521 781 978 963 767 b 543 67 963 275 778 67 b 121 521 306 67 121 275 z m 799 397 l 765 397 b 588 268 736 325 678 268 b 385 544 443 268 385 386 b 581 793 388 693 458 793 b 743 664 686 793 731 729 l 772 664 l 772 772 b 739 806 772 785 763 796 b 585 832 700 819 660 832 b 250 535 343 832 250 664 b 572 231 250 328 388 231 b 731 260 643 231 704 251 b 775 289 757 268 772 272 z "},"Á":{"ha":1100,"x_min":0,"x_max":0,"o":"m 576 1046 l 568 1046 l 167 249 b 15 0 81 78 50 40 l 269 0 b 322 211 264 82 304 172 l 375 324 l 740 324 l 801 183 b 844 0 839 99 844 46 l 1092 3 b 929 285 1053 56 1004 122 z m 565 725 l 686 446 l 433 446 z m 576 1290 b 467 1090 568 1256 554 1197 l 531 1090 b 728 1290 588 1115 681 1174 z "},"Â":{"ha":1100,"x_min":0,"x_max":0,"o":"m 576 1046 l 568 1046 l 167 249 b 15 0 81 78 50 40 l 269 0 b 322 211 264 82 304 172 l 375 324 l 740 324 l 801 183 b 844 0 839 99 844 46 l 1092 3 b 929 285 1053 56 1004 122 z m 565 725 l 686 446 l 433 446 z m 485 1290 b 367 1089 456 1207 428 1160 l 440 1089 b 576 1210 514 1140 547 1172 b 714 1089 621 1150 690 1104 l 783 1089 b 667 1290 714 1161 681 1249 z "},"Ä":{"ha":1100,"x_min":0,"x_max":0,"o":"m 576 1046 l 568 1046 l 167 249 b 15 0 81 78 50 40 l 269 0 b 322 211 264 82 304 172 l 375 324 l 740 324 l 801 183 b 844 0 839 99 844 46 l 1092 3 b 929 285 1053 56 1004 122 z m 565 725 l 686 446 l 433 446 z m 379 1268 b 326 1092 372 1206 350 1142 l 456 1092 b 532 1268 514 1168 524 1221 z m 736 1268 b 685 1092 732 1206 708 1142 l 813 1092 b 889 1268 871 1168 881 1221 z "},"À":{"ha":1100,"x_min":0,"x_max":0,"o":"m 576 1046 l 568 1046 l 167 249 b 15 0 81 78 50 40 l 269 0 b 322 211 264 82 304 172 l 375 324 l 740 324 l 801 183 b 844 0 839 99 844 46 l 1092 3 b 929 285 1053 56 1004 122 z m 565 725 l 686 446 l 433 446 z m 656 1092 b 546 1290 568 1199 554 1256 l 394 1290 b 592 1092 442 1175 535 1117 z "},"Å":{"ha":1100,"x_min":0,"x_max":0,"o":"m 606 979 b 725 1125 679 996 725 1058 b 574 1279 725 1208 657 1279 b 421 1126 489 1279 421 1211 b 535 981 421 1061 464 1000 l 167 249 b 15 0 81 78 50 40 l 269 0 b 322 211 264 82 304 172 l 375 324 l 739 324 l 801 183 b 843 0 838 99 843 46 l 1090 3 b 928 285 1051 56 1004 122 z m 565 725 l 686 446 l 433 446 z m 572 1207 b 653 1126 617 1207 653 1171 b 572 1044 653 1081 617 1044 b 492 1126 528 1044 492 1081 b 572 1207 492 1172 528 1207 z "},"Ã":{"ha":1100,"x_min":0,"x_max":0,"o":"m 576 1046 l 568 1046 l 167 249 b 15 0 81 78 50 40 l 269 0 b 322 211 264 82 304 172 l 375 324 l 740 324 l 801 183 b 844 0 839 99 844 46 l 1092 3 b 929 285 1053 56 1004 122 z m 565 725 l 686 446 l 433 446 z m 806 1272 b 733 1203 811 1204 751 1203 b 586 1242 714 1203 678 1203 b 471 1274 524 1268 501 1274 b 289 1090 386 1274 296 1206 l 385 1090 l 382 1108 b 454 1158 382 1132 407 1158 b 579 1121 483 1158 490 1156 b 708 1090 597 1114 657 1090 b 899 1272 747 1090 892 1111 z "},"Ç":{"ha":911,"x_min":0,"x_max":0,"o":"m 875 1011 b 651 1051 824 1029 760 1051 b 44 499 279 1051 44 778 b 538 -8 44 324 150 10 b 465 -12 506 -7 486 -10 l 460 -71 l 500 -67 b 571 -115 536 -67 571 -86 b 503 -162 571 -140 544 -162 b 431 -156 482 -162 467 -161 l 408 -215 b 511 -228 436 -221 469 -228 b 671 -117 622 -228 671 -176 b 550 -8 671 -103 667 -15 b 892 71 726 -11 818 35 l 900 232 b 593 119 843 189 753 119 b 210 515 349 119 210 303 b 604 919 210 747 372 919 b 875 844 728 919 814 876 z "},"É":{"ha":708,"x_min":0,"x_max":0,"o":"m 76 1042 b 115 778 106 951 115 849 l 115 268 b 76 0 115 135 94 61 l 622 0 l 699 174 b 271 99 478 99 404 99 l 271 479 b 508 433 350 474 389 468 l 597 579 l 271 579 l 271 943 b 558 881 381 947 442 933 l 638 1042 z m 381 1290 b 271 1090 372 1256 358 1197 l 335 1090 b 532 1290 392 1115 485 1174 z "},"Ê":{"ha":708,"x_min":0,"x_max":0,"o":"m 76 1042 b 115 778 106 951 115 849 l 115 268 b 76 0 115 135 94 61 l 622 0 l 699 174 b 271 99 478 99 404 99 l 271 479 b 508 433 350 474 389 468 l 597 579 l 271 579 l 271 943 b 558 881 381 947 442 933 l 638 1042 z m 275 1290 b 157 1089 246 1207 218 1160 l 231 1089 b 367 1210 304 1140 338 1172 b 504 1089 411 1150 481 1104 l 574 1089 b 457 1290 504 1161 471 1249 z "},"Ë":{"ha":708,"x_min":0,"x_max":0,"o":"m 76 1042 b 115 778 106 951 115 849 l 115 268 b 76 0 115 135 94 61 l 622 0 l 699 174 b 271 99 478 99 404 99 l 271 479 b 508 433 350 474 389 468 l 597 579 l 271 579 l 271 943 b 558 881 381 947 442 933 l 638 1042 z m 136 1268 b 83 1092 129 1206 107 1142 l 213 1092 b 289 1268 271 1168 281 1221 z m 493 1268 b 442 1092 489 1206 465 1142 l 569 1092 b 646 1268 628 1168 638 1221 z "},"È":{"ha":708,"x_min":0,"x_max":0,"o":"m 76 1042 b 115 778 106 951 115 849 l 115 268 b 76 0 115 135 94 61 l 622 0 l 699 174 b 271 99 478 99 404 99 l 271 479 b 508 433 350 474 389 468 l 597 579 l 271 579 l 271 943 b 558 881 381 947 442 933 l 638 1042 z m 461 1092 b 351 1290 374 1199 360 1256 l 200 1290 b 397 1092 247 1175 340 1117 z "},"Í":{"ha":390,"x_min":0,"x_max":0,"o":"m 82 1042 b 122 794 108 978 122 913 l 122 299 b 82 0 122 125 103 65 l 317 0 b 278 288 286 110 278 169 l 278 767 b 317 1042 278 924 297 981 z m 222 1290 b 113 1090 214 1256 200 1197 l 176 1090 b 374 1290 233 1115 326 1174 z "},"Î":{"ha":390,"x_min":0,"x_max":0,"o":"m 82 1042 b 122 794 108 978 122 913 l 122 299 b 82 0 122 125 103 65 l 317 0 b 278 288 286 110 278 169 l 278 767 b 317 1042 278 924 297 981 z m 115 1290 b -3 1089 86 1207 58 1160 l 71 1089 b 207 1210 144 1140 178 1172 b 344 1089 251 1150 321 1104 l 414 1089 b 297 1290 344 1161 311 1249 z "},"Ï":{"ha":390,"x_min":0,"x_max":0,"o":"m 82 1042 b 122 794 108 978 122 913 l 122 299 b 82 0 122 125 103 65 l 317 0 b 278 288 286 110 278 169 l 278 767 b 317 1042 278 924 297 981 z m -22 1268 b -75 1092 -29 1206 -51 1142 l 54 1092 b 131 1268 113 1168 122 1221 z m 335 1268 b 283 1092 331 1206 307 1142 l 411 1092 b 488 1268 469 1168 479 1221 z "},"Ì":{"ha":390,"x_min":0,"x_max":0,"o":"m 82 1042 b 122 794 108 978 122 913 l 122 299 b 82 0 122 125 103 65 l 317 0 b 278 288 286 110 278 169 l 278 767 b 317 1042 278 924 297 981 z m 303 1092 b 193 1290 215 1199 201 1256 l 42 1290 b 239 1092 89 1175 182 1117 z "},"Ñ":{"ha":1100,"x_min":0,"x_max":0,"o":"m 13 1042 b 153 901 75 992 103 965 l 153 275 b 118 0 153 256 151 108 l 339 0 b 297 306 307 85 297 214 l 297 717 l 740 150 b 829 0 776 104 811 56 l 1022 0 b 988 260 1007 43 988 99 l 988 819 b 1014 1042 988 931 1000 986 l 814 1042 b 843 742 831 982 843 933 l 843 268 l 372 865 b 261 1042 290 969 281 994 z m 772 1272 b 700 1203 778 1204 718 1203 b 553 1242 681 1203 644 1203 b 438 1274 490 1268 468 1274 b 256 1090 353 1274 263 1206 l 351 1090 l 349 1108 b 421 1158 349 1132 374 1158 b 546 1121 450 1158 457 1156 b 675 1090 564 1114 624 1090 b 865 1272 714 1090 858 1111 z "},"Ó":{"ha":1172,"x_min":0,"x_max":0,"o":"m 49 532 b 593 -7 49 265 257 -7 b 1138 525 888 -7 1138 200 b 619 1050 1138 789 964 1050 b 49 532 257 1050 49 764 z m 224 556 b 568 939 224 757 358 939 b 976 486 811 939 976 703 b 636 106 976 324 868 106 b 224 556 438 106 224 274 z m 610 1290 b 500 1090 601 1256 588 1197 l 564 1090 b 761 1290 621 1115 714 1174 z "},"Ô":{"ha":1172,"x_min":0,"x_max":0,"o":"m 49 532 b 593 -7 49 265 257 -7 b 1138 525 888 -7 1138 200 b 619 1050 1138 789 964 1050 b 49 532 257 1050 49 764 z m 224 556 b 568 939 224 757 358 939 b 976 486 811 939 976 703 b 636 106 976 324 868 106 b 224 556 438 106 224 274 z m 506 1290 b 388 1089 476 1207 449 1160 l 461 1089 b 597 1210 535 1140 568 1172 b 735 1089 642 1150 711 1104 l 804 1089 b 688 1290 735 1161 701 1249 z "},"Ö":{"ha":1172,"x_min":0,"x_max":0,"o":"m 49 532 b 593 -7 49 265 257 -7 b 1138 525 888 -7 1138 200 b 619 1050 1138 789 964 1050 b 49 532 257 1050 49 764 z m 224 556 b 568 939 224 757 358 939 b 976 486 811 939 976 703 b 636 106 976 324 868 106 b 224 556 438 106 224 274 z m 367 1268 b 314 1092 360 1206 338 1142 l 443 1092 b 519 1268 501 1168 511 1221 z m 724 1268 b 672 1092 719 1206 696 1142 l 800 1092 b 876 1268 858 1168 868 1221 z "},"Ò":{"ha":1172,"x_min":0,"x_max":0,"o":"m 49 532 b 593 -7 49 265 257 -7 b 1138 525 888 -7 1138 200 b 619 1050 1138 789 964 1050 b 49 532 257 1050 49 764 z m 224 556 b 568 939 224 757 358 939 b 976 486 811 939 976 703 b 636 106 976 324 868 106 b 224 556 438 106 224 274 z m 692 1092 b 582 1290 604 1199 590 1256 l 431 1290 b 628 1092 478 1175 571 1117 z "},"Õ":{"ha":1172,"x_min":0,"x_max":0,"o":"m 49 532 b 593 -7 49 265 257 -7 b 1138 525 888 -7 1138 200 b 619 1050 1138 789 964 1050 b 49 532 257 1050 49 764 z m 224 556 b 568 939 224 757 358 939 b 976 486 811 939 976 703 b 636 106 976 324 868 106 b 224 556 438 106 224 274 z m 808 1272 b 736 1203 814 1204 754 1203 b 589 1242 717 1203 681 1203 b 474 1274 526 1268 504 1274 b 292 1090 389 1274 299 1206 l 388 1090 l 385 1108 b 457 1158 385 1132 410 1158 b 582 1121 486 1158 493 1156 b 711 1090 600 1114 660 1090 b 901 1272 750 1090 894 1111 z "},"Š":{"ha":622,"x_min":0,"x_max":0,"o":"m 554 1003 b 343 1053 504 1024 438 1053 b 35 751 172 1053 35 917 b 346 399 35 593 124 538 b 433 261 376 379 433 333 b 278 115 433 188 368 115 b 74 242 182 115 121 188 l 74 21 b 253 -7 122 7 171 -7 b 606 290 471 -7 606 118 b 414 558 606 390 564 472 b 196 783 283 633 196 685 b 357 924 196 865 267 924 b 554 842 450 924 508 878 z m 113 1290 b 231 1089 174 1219 201 1174 l 413 1089 b 529 1290 426 1131 460 1218 l 460 1290 b 322 1169 436 1275 367 1231 b 186 1290 293 1207 260 1240 z "},"Ú":{"ha":1042,"x_min":0,"x_max":0,"o":"m 71 1042 b 104 803 89 997 104 961 l 104 392 b 443 -10 104 154 228 -10 b 774 103 592 -10 713 65 b 767 0 775 72 774 60 l 951 0 b 924 274 924 140 924 201 l 924 829 b 951 1042 924 965 935 997 l 729 1042 b 767 803 767 963 767 850 l 767 392 b 758 288 767 326 764 308 b 519 106 729 190 632 106 b 281 269 453 106 332 143 b 260 413 265 308 260 347 l 260 792 b 293 1042 260 936 269 974 z m 547 1290 b 438 1090 539 1256 525 1197 l 501 1090 b 699 1290 558 1115 651 1174 z "},"Û":{"ha":1042,"x_min":0,"x_max":0,"o":"m 71 1042 b 104 803 89 997 104 961 l 104 392 b 443 -10 104 154 228 -10 b 774 103 592 -10 713 65 b 767 0 775 72 774 60 l 951 0 b 924 274 924 140 924 201 l 924 829 b 951 1042 924 965 935 997 l 729 1042 b 767 803 767 963 767 850 l 767 392 b 758 288 767 326 764 308 b 519 106 729 190 632 106 b 281 269 453 106 332 143 b 260 413 265 308 260 347 l 260 792 b 293 1042 260 936 269 974 z m 440 1290 b 322 1089 411 1207 383 1160 l 396 1089 b 532 1210 469 1140 503 1172 b 669 1089 576 1150 646 1104 l 739 1089 b 622 1290 669 1161 636 1249 z "},"Ü":{"ha":1042,"x_min":0,"x_max":0,"o":"m 71 1042 b 104 803 89 997 104 961 l 104 392 b 443 -10 104 154 228 -10 b 774 103 592 -10 713 65 b 767 0 775 72 774 60 l 951 0 b 924 274 924 140 924 201 l 924 829 b 951 1042 924 965 935 997 l 729 1042 b 767 803 767 963 767 850 l 767 392 b 758 288 767 326 764 308 b 519 106 729 190 632 106 b 281 269 453 106 332 143 b 260 413 265 308 260 347 l 260 792 b 293 1042 260 936 269 974 z m 301 1268 b 249 1092 294 1206 272 1142 l 378 1092 b 454 1268 436 1168 446 1221 z m 658 1268 b 607 1092 654 1206 631 1142 l 735 1092 b 811 1268 793 1168 803 1221 z "},"Ù":{"ha":1042,"x_min":0,"x_max":0,"o":"m 71 1042 b 104 803 89 997 104 961 l 104 392 b 443 -10 104 154 228 -10 b 774 103 592 -10 713 65 b 767 0 775 72 774 60 l 951 0 b 924 274 924 140 924 201 l 924 829 b 951 1042 924 965 935 997 l 729 1042 b 767 803 767 963 767 850 l 767 392 b 758 288 767 326 764 308 b 519 106 729 190 632 106 b 281 269 453 106 332 143 b 260 413 265 308 260 347 l 260 792 b 293 1042 260 936 269 974 z m 626 1092 b 517 1290 539 1199 525 1256 l 365 1290 b 563 1092 413 1175 506 1117 z "},"Ý":{"ha":868,"x_min":0,"x_max":0,"o":"m 33 1039 b 151 888 79 1004 101 979 l 385 472 l 385 178 b 357 0 385 68 372 39 l 568 0 b 540 124 540 54 540 114 l 540 485 l 790 924 b 868 1040 800 939 829 990 l 658 1042 b 604 882 661 992 649 957 l 463 631 l 317 888 b 271 1042 290 935 265 981 z m 461 1290 b 351 1090 453 1256 439 1197 l 415 1090 b 613 1290 472 1115 565 1174 z "},"Ÿ":{"ha":868,"x_min":0,"x_max":0,"o":"m 33 1039 b 151 888 79 1004 101 979 l 385 472 l 385 178 b 357 0 385 68 372 39 l 568 0 b 540 124 540 54 540 114 l 540 485 l 790 924 b 868 1040 800 939 829 990 l 658 1042 b 604 882 661 992 649 957 l 463 631 l 317 888 b 271 1042 290 935 265 981 z m 268 1268 b 215 1092 261 1206 239 1142 l 344 1092 b 421 1268 403 1168 413 1221 z m 625 1268 b 574 1092 621 1206 597 1142 l 701 1092 b 778 1268 760 1168 769 1221 z "},"Ž":{"ha":796,"x_min":0,"x_max":0,"o":"m 104 1042 l 38 847 b 397 936 106 881 222 936 b 492 931 429 936 475 933 b 24 0 342 606 181 286 l 708 0 l 783 190 b 361 104 719 157 619 104 b 278 108 325 104 303 106 l 604 799 l 726 1042 z m 201 1290 b 319 1089 263 1219 290 1174 l 501 1089 b 618 1290 515 1131 549 1218 l 549 1290 b 411 1169 525 1275 456 1231 b 275 1290 382 1207 349 1240 z "},"á":{"ha":636,"x_min":0,"x_max":0,"o":"m 104 572 b 242 619 149 599 188 619 b 386 550 308 619 367 586 b 394 492 392 539 394 528 l 394 454 b 289 401 365 433 358 428 b 33 168 194 364 33 293 b 217 0 33 50 160 0 b 275 7 239 0 267 6 b 394 101 326 50 342 63 l 394 0 l 558 0 b 532 101 544 43 532 85 l 526 517 b 506 622 526 565 526 585 b 299 725 490 649 433 725 b 235 719 289 725 260 725 l 143 700 z m 394 114 b 319 101 371 107 353 101 b 182 208 247 101 182 128 b 208 318 182 251 193 282 l 394 318 z m 317 1038 b 246 806 310 963 290 894 l 289 806 b 450 1038 390 882 435 989 z "},"â":{"ha":636,"x_min":0,"x_max":0,"o":"m 104 572 b 242 619 149 599 188 619 b 386 550 308 619 367 586 b 394 492 392 539 394 528 l 394 454 b 289 401 365 433 358 428 b 33 168 194 364 33 293 b 217 0 33 50 160 0 b 275 7 239 0 267 6 b 394 101 326 50 342 63 l 394 0 l 558 0 b 532 101 544 43 532 85 l 526 517 b 506 622 526 565 526 585 b 299 725 490 649 433 725 b 235 719 289 725 260 725 l 143 700 z m 394 114 b 319 101 371 107 353 101 b 182 208 247 101 182 128 b 208 318 182 251 193 282 l 394 318 z m 247 1042 b 157 804 225 908 181 842 l 207 804 b 335 956 275 871 299 900 b 465 804 374 894 403 861 l 515 804 b 424 1042 488 849 436 942 z "},"ä":{"ha":636,"x_min":0,"x_max":0,"o":"m 104 572 b 242 619 149 599 188 619 b 386 550 308 619 367 586 b 394 492 392 539 394 528 l 394 454 b 289 401 365 433 358 428 b 33 168 194 364 33 293 b 217 0 33 50 160 0 b 275 7 239 0 267 6 b 394 101 326 50 342 63 l 394 0 l 558 0 b 532 101 544 43 532 85 l 526 517 b 506 622 526 565 526 585 b 299 725 490 649 433 725 b 235 719 289 725 260 725 l 143 700 z m 394 114 b 319 101 371 107 353 101 b 182 208 247 101 182 128 b 208 318 182 251 193 282 l 394 318 z m 138 1008 b 92 832 135 942 114 885 l 204 832 b 268 1008 224 863 260 931 z m 419 1008 b 372 832 417 942 396 885 l 486 832 b 549 1008 504 863 542 931 z "},"à":{"ha":636,"x_min":0,"x_max":0,"o":"m 104 572 b 242 619 149 599 188 619 b 386 550 308 619 367 586 b 394 492 392 539 394 528 l 394 454 b 289 401 365 433 358 428 b 33 168 194 364 33 293 b 217 0 33 50 160 0 b 275 7 239 0 267 6 b 394 101 326 50 342 63 l 394 0 l 558 0 b 532 101 544 43 532 85 l 526 517 b 506 622 526 565 526 585 b 299 725 490 649 433 725 b 235 719 289 725 260 725 l 143 700 z m 394 114 b 319 101 371 107 353 101 b 182 208 247 101 182 128 b 208 318 182 251 193 282 l 394 318 z m 393 806 b 322 1038 349 894 329 963 l 189 1038 b 350 806 204 989 249 882 z "},"å":{"ha":636,"x_min":0,"x_max":0,"o":"m 104 572 b 242 619 149 599 188 619 b 386 550 308 619 367 586 b 394 492 392 539 394 528 l 394 454 b 289 401 365 433 358 428 b 33 168 194 364 33 293 b 217 0 33 50 160 0 b 275 7 239 0 267 6 b 394 101 326 50 342 63 l 394 0 l 558 0 b 532 101 544 43 532 85 l 526 517 b 506 622 526 565 526 585 b 299 725 490 649 433 725 b 235 719 289 725 260 725 l 143 700 z m 394 114 b 319 101 371 107 353 101 b 182 208 247 101 182 128 b 208 318 182 251 193 282 l 394 318 z m 319 1026 b 213 919 263 1026 213 981 b 319 814 213 861 261 814 b 425 919 376 814 425 861 b 319 1026 425 981 376 1026 z m 319 978 b 375 921 350 978 375 951 b 319 864 375 890 350 864 b 263 921 288 864 263 889 b 319 978 263 953 289 978 z "},"ã":{"ha":636,"x_min":0,"x_max":0,"o":"m 104 572 b 242 619 149 599 188 619 b 386 550 308 619 367 586 b 394 492 392 539 394 528 l 394 454 b 289 401 365 433 358 428 b 33 168 194 364 33 293 b 217 0 33 50 160 0 b 275 7 239 0 267 6 b 394 101 326 50 342 63 l 394 0 l 558 0 b 532 101 544 43 532 85 l 526 517 b 506 622 526 565 526 585 b 299 725 490 649 433 725 b 235 719 289 725 260 725 l 143 700 z m 394 114 b 319 101 371 107 353 101 b 182 208 247 101 182 128 b 208 318 182 251 193 282 l 394 318 z m 503 1011 b 446 939 508 975 496 939 b 358 969 432 939 404 938 b 243 1013 308 1003 274 1013 b 81 829 182 1013 85 960 l 168 829 b 225 901 163 865 175 901 b 313 871 239 901 267 903 b 428 828 363 838 397 828 b 590 1011 489 828 586 881 z "},"ç":{"ha":593,"x_min":0,"x_max":0,"o":"m 583 138 b 428 110 542 125 490 110 b 199 381 335 110 199 168 b 406 633 199 488 244 633 b 561 560 490 633 529 593 l 574 713 b 433 726 536 719 497 726 b 53 344 100 726 53 444 b 363 4 53 156 185 17 l 363 3 b 297 -12 319 -7 314 -7 l 297 -78 b 353 -62 338 -64 343 -62 b 399 -108 368 -62 399 -76 b 343 -161 399 -137 376 -161 b 283 -146 319 -161 303 -154 l 246 -200 b 347 -226 276 -217 311 -226 b 489 -107 424 -226 489 -179 b 390 1 489 -61 464 -8 l 390 3 b 508 21 443 3 475 11 z "},"é":{"ha":622,"x_min":0,"x_max":0,"o":"m 569 176 b 379 119 488 139 438 119 b 201 339 218 119 206 289 l 585 347 b 576 515 585 426 586 457 b 342 726 556 654 461 726 b 50 351 171 726 50 593 b 340 0 50 188 108 0 b 501 32 408 0 457 17 z m 197 432 b 350 639 208 556 246 639 b 494 432 450 639 499 564 z m 308 1038 b 238 806 301 963 282 894 l 281 806 b 442 1038 382 882 426 989 z "},"ê":{"ha":622,"x_min":0,"x_max":0,"o":"m 569 176 b 379 119 488 139 438 119 b 201 339 218 119 206 289 l 585 347 b 576 515 585 426 586 457 b 342 726 556 654 461 726 b 50 351 171 726 50 593 b 340 0 50 188 108 0 b 501 32 408 0 457 17 z m 197 432 b 350 639 208 556 246 639 b 494 432 450 639 499 564 z m 247 1042 b 157 804 225 908 181 842 l 207 804 b 335 956 275 871 299 900 b 465 804 374 894 403 861 l 515 804 b 424 1042 488 849 436 942 z "},"ë":{"ha":622,"x_min":0,"x_max":0,"o":"m 569 176 b 379 119 488 139 438 119 b 201 339 218 119 206 289 l 585 347 b 576 515 585 426 586 457 b 342 726 556 654 461 726 b 50 351 171 726 50 593 b 340 0 50 188 108 0 b 501 32 408 0 457 17 z m 197 432 b 350 639 208 556 246 639 b 494 432 450 639 499 564 z m 164 1008 b 118 832 161 942 140 885 l 231 832 b 294 1008 250 863 286 931 z m 446 1008 b 399 832 443 942 422 885 l 513 832 b 575 1008 531 863 568 931 z "},"è":{"ha":622,"x_min":0,"x_max":0,"o":"m 569 176 b 379 119 488 139 438 119 b 201 339 218 119 206 289 l 585 347 b 576 515 585 426 586 457 b 342 726 556 654 461 726 b 50 351 171 726 50 593 b 340 0 50 188 108 0 b 501 32 408 0 457 17 z m 197 432 b 350 639 208 556 246 639 b 494 432 450 639 499 564 z m 383 806 b 313 1038 339 894 319 963 l 179 1038 b 340 806 194 989 239 882 z "},"í":{"ha":361,"x_min":0,"x_max":0,"o":"m 68 729 b 106 547 96 672 106 639 l 106 210 b 63 0 106 67 94 50 l 286 0 b 244 201 267 32 244 69 l 244 547 b 279 729 244 664 261 694 z m 178 1038 b 107 806 171 963 151 894 l 150 806 b 311 1038 251 882 296 989 z "},"î":{"ha":361,"x_min":0,"x_max":0,"o":"m 68 729 b 106 547 96 672 106 639 l 106 210 b 63 0 106 67 94 50 l 286 0 b 244 201 267 32 244 69 l 244 547 b 279 729 244 664 261 694 z m 90 1042 b 0 804 68 908 24 842 l 50 804 b 178 956 118 871 142 900 b 308 804 217 894 246 861 l 358 804 b 267 1042 331 849 279 942 z "},"ï":{"ha":361,"x_min":0,"x_max":0,"o":"m 68 729 b 106 547 96 672 106 639 l 106 210 b 63 0 106 67 94 50 l 286 0 b 244 201 267 32 244 69 l 244 547 b 279 729 244 664 261 694 z m -1 1008 b -47 832 -4 942 -25 885 l 65 832 b 129 1008 85 863 121 931 z m 281 1008 b 233 832 278 942 257 885 l 347 832 b 410 1008 365 863 403 931 z "},"ì":{"ha":361,"x_min":0,"x_max":0,"o":"m 68 729 b 106 547 96 672 106 639 l 106 210 b 63 0 106 67 94 50 l 286 0 b 244 201 267 32 244 69 l 244 547 b 279 729 244 664 261 694 z m 253 806 b 182 1038 208 894 189 963 l 49 1038 b 210 806 64 989 108 882 z "},"ñ":{"ha":767,"x_min":0,"x_max":0,"o":"m 253 588 l 254 729 l 97 729 b 117 613 104 694 117 632 l 117 222 b 81 0 117 147 111 69 l 265 0 b 253 161 256 61 253 85 l 253 575 b 382 617 286 597 314 617 b 514 522 489 617 514 547 l 514 121 b 492 0 514 85 514 58 l 678 0 b 651 125 657 49 651 67 l 651 544 b 468 735 651 681 533 735 b 357 701 421 735 386 717 z m 551 1011 b 494 939 557 975 544 939 b 407 969 481 939 453 938 b 292 1013 357 1003 322 1013 b 129 829 231 1013 133 960 l 217 829 b 274 901 211 865 224 901 b 361 871 288 901 315 903 b 476 828 411 838 446 828 b 639 1011 538 828 635 881 z "},"ó":{"ha":753,"x_min":0,"x_max":0,"o":"m 360 736 b 36 335 240 700 36 638 b 360 -11 36 82 218 -11 b 714 388 449 -11 714 71 b 360 736 714 603 558 743 z m 457 93 b 185 393 324 82 185 185 b 361 638 185 546 267 638 b 583 358 490 638 583 506 b 457 93 583 201 506 132 z m 374 1038 b 303 806 367 963 347 894 l 346 806 b 507 1038 447 882 492 989 z "},"ô":{"ha":753,"x_min":0,"x_max":0,"o":"m 360 736 b 36 335 240 700 36 638 b 360 -11 36 82 218 -11 b 714 388 449 -11 714 71 b 360 736 714 603 558 743 z m 457 93 b 185 393 324 82 185 185 b 361 638 185 546 267 638 b 583 358 490 638 583 506 b 457 93 583 201 506 132 z m 288 1042 b 197 804 265 908 221 842 l 247 804 b 375 956 315 871 339 900 b 506 804 414 894 443 861 l 556 804 b 464 1042 528 849 476 942 z "},"ö":{"ha":753,"x_min":0,"x_max":0,"o":"m 360 736 b 36 335 240 700 36 638 b 360 -11 36 82 218 -11 b 714 388 449 -11 714 71 b 360 736 714 603 558 743 z m 457 93 b 185 393 324 82 185 185 b 361 638 185 546 267 638 b 583 358 490 638 583 506 b 457 93 583 201 506 132 z m 196 1008 b 150 832 193 942 172 885 l 263 832 b 326 1008 282 863 318 931 z m 478 1008 b 431 832 475 942 454 885 l 544 832 b 607 1008 563 863 600 931 z "},"ò":{"ha":753,"x_min":0,"x_max":0,"o":"m 360 736 b 36 335 240 700 36 638 b 360 -11 36 82 218 -11 b 714 388 449 -11 714 71 b 360 736 714 603 558 743 z m 457 93 b 185 393 324 82 185 185 b 361 638 185 546 267 638 b 583 358 490 638 583 506 b 457 93 583 201 506 132 z m 450 806 b 379 1038 406 894 386 963 l 246 1038 b 407 806 261 989 306 882 z "},"õ":{"ha":753,"x_min":0,"x_max":0,"o":"m 360 736 b 36 335 240 700 36 638 b 360 -11 36 82 218 -11 b 714 388 449 -11 714 71 b 360 736 714 603 558 743 z m 457 93 b 185 393 324 82 185 185 b 361 638 185 546 267 638 b 583 358 490 638 583 506 b 457 93 583 201 506 132 z m 544 1011 b 488 939 550 975 538 939 b 400 969 474 939 446 938 b 285 1013 350 1003 315 1013 b 122 829 224 1013 126 960 l 210 829 b 267 901 204 865 217 901 b 354 871 281 901 308 903 b 469 828 404 838 439 828 b 632 1011 531 828 628 881 z "},"š":{"ha":478,"x_min":0,"x_max":0,"o":"m 438 696 b 299 726 386 715 356 726 b 56 522 125 726 56 603 b 194 313 56 406 147 343 b 310 176 271 264 310 239 b 203 78 310 131 278 78 b 43 213 144 78 110 117 l 33 25 b 208 -1 122 -1 190 -1 b 446 208 364 -1 446 85 b 321 410 446 310 396 360 b 197 547 226 472 197 492 b 303 644 197 599 238 644 b 438 581 367 644 407 607 z m 78 1042 b 168 804 101 1004 146 938 l 344 804 b 436 1042 357 904 408 997 l 386 1042 b 256 890 324 985 294 951 b 126 1042 219 946 196 975 z "},"ú":{"ha":767,"x_min":0,"x_max":0,"o":"m 78 728 b 115 543 101 682 117 646 l 113 132 b 290 -1 171 10 265 -1 b 394 28 333 -1 374 17 l 504 147 b 499 0 504 79 504 67 l 669 0 b 644 171 660 26 644 75 l 644 593 b 681 728 644 650 660 683 l 476 725 b 504 557 503 665 504 629 l 504 161 b 368 111 472 139 428 111 b 254 207 353 111 274 111 l 254 607 b 289 728 254 672 264 688 z m 382 1038 b 311 806 375 963 356 894 l 354 806 b 515 1038 456 882 500 989 z "},"û":{"ha":767,"x_min":0,"x_max":0,"o":"m 78 728 b 115 543 101 682 117 646 l 113 132 b 290 -1 171 10 265 -1 b 394 28 333 -1 374 17 l 504 147 b 499 0 504 79 504 67 l 669 0 b 644 171 660 26 644 75 l 644 593 b 681 728 644 650 660 683 l 476 725 b 504 557 503 665 504 629 l 504 161 b 368 111 472 139 428 111 b 254 207 353 111 274 111 l 254 607 b 289 728 254 672 264 688 z m 296 1042 b 206 804 274 908 229 842 l 256 804 b 383 956 324 871 347 900 b 514 804 422 894 451 861 l 564 804 b 472 1042 536 849 485 942 z "},"ü":{"ha":767,"x_min":0,"x_max":0,"o":"m 78 728 b 115 543 101 682 117 646 l 113 132 b 290 -1 171 10 265 -1 b 394 28 333 -1 374 17 l 504 147 b 499 0 504 79 504 67 l 669 0 b 644 171 660 26 644 75 l 644 593 b 681 728 644 650 660 683 l 476 725 b 504 557 503 665 504 629 l 504 161 b 368 111 472 139 428 111 b 254 207 353 111 274 111 l 254 607 b 289 728 254 672 264 688 z m 203 1008 b 157 832 200 942 179 885 l 269 832 b 333 1008 289 863 325 931 z m 485 1008 b 438 832 482 942 461 885 l 551 832 b 614 1008 569 863 607 931 z "},"ù":{"ha":767,"x_min":0,"x_max":0,"o":"m 78 728 b 115 543 101 682 117 646 l 113 132 b 290 -1 171 10 265 -1 b 394 28 333 -1 374 17 l 504 147 b 499 0 504 79 504 67 l 669 0 b 644 171 660 26 644 75 l 644 593 b 681 728 644 650 660 683 l 476 725 b 504 557 503 665 504 629 l 504 161 b 368 111 472 139 428 111 b 254 207 353 111 274 111 l 254 607 b 289 728 254 672 264 688 z m 457 806 b 386 1038 413 894 393 963 l 253 1038 b 414 806 268 989 313 882 z "},"ý":{"ha":767,"x_min":0,"x_max":0,"o":"m 43 729 b 175 476 111 633 164 503 b 333 86 229 346 293 190 b 225 -117 279 -29 250 -86 l 135 -225 l 271 -225 l 351 -168 b 493 115 372 -153 464 35 l 588 369 b 756 729 683 626 707 660 l 539 729 b 411 269 539 638 538 615 l 268 617 b 238 729 253 653 243 690 z m 382 1038 b 311 806 375 963 356 894 l 354 806 b 515 1038 456 882 500 989 z "},"ÿ":{"ha":767,"x_min":0,"x_max":0,"o":"m 43 729 b 175 476 111 633 164 503 b 333 86 229 346 293 190 b 225 -117 279 -29 250 -86 l 135 -225 l 271 -225 l 351 -168 b 493 115 372 -153 464 35 l 588 369 b 756 729 683 626 707 660 l 539 729 b 411 269 539 638 538 615 l 268 617 b 238 729 253 653 243 690 z m 229 1008 b 183 832 226 942 206 885 l 296 832 b 360 1008 315 863 351 931 z m 511 1008 b 464 832 508 942 488 885 l 578 832 b 640 1008 596 863 633 931 z "},"ž":{"ha":535,"x_min":0,"x_max":0,"o":"m 181 299 b 24 0 142 208 69 67 l 481 0 l 522 140 b 349 86 471 100 432 86 l 238 86 b 292 233 263 160 286 222 l 465 629 b 504 711 476 657 479 661 l 74 728 l 36 588 b 208 636 74 614 118 642 l 322 629 z m 88 1042 b 178 804 111 1004 156 938 l 354 804 b 446 1042 367 904 418 997 l 396 1042 b 265 890 333 985 304 951 b 136 1042 229 946 206 975 z "},"Ω":{"ha":1079,"x_min":0,"x_max":0,"o":"m 1029 217 l 989 218 b 878 107 957 119 939 107 l 717 107 b 971 575 828 214 971 365 b 542 1029 971 858 792 1029 b 106 564 296 1029 106 849 b 356 107 106 328 260 188 l 203 107 b 88 218 143 107 119 124 l 50 217 l 85 0 l 435 0 l 447 29 b 263 553 369 169 263 349 b 538 983 263 871 385 983 b 815 560 679 983 814 872 b 628 29 817 349 692 153 l 639 0 l 992 0 z "},"μ":{"ha":767,"x_min":0,"x_max":0,"o":"m 510 147 b 504 0 510 71 510 67 l 675 0 b 650 171 665 26 650 75 l 650 593 b 686 728 650 650 665 683 l 482 725 b 510 557 508 665 510 629 l 510 161 b 374 111 478 139 433 111 b 260 207 358 111 279 111 l 260 607 b 294 728 260 672 269 688 l 82 728 b 119 544 103 685 119 647 l 119 -53 b 92 -222 119 -126 118 -161 l 299 -224 b 260 -89 278 -179 260 -146 l 260 13 b 311 0 272 4 292 0 b 400 29 347 0 378 18 z "},"π":{"ha":840,"x_min":0,"x_max":0,"o":"m 761 700 b 674 650 738 658 719 650 b 276 656 532 650 386 654 b 24 519 124 656 68 572 l 46 485 b 236 550 101 525 139 551 b 97 8 236 400 207 146 l 107 -18 b 197 8 132 -15 169 -4 b 294 522 219 35 294 185 l 294 549 b 519 546 354 549 435 546 b 504 172 513 429 504 308 b 639 -18 504 22 561 -18 b 794 82 694 -18 757 17 l 775 114 b 703 72 750 88 732 72 b 639 206 658 72 639 117 b 646 542 639 308 638 450 b 746 549 686 542 721 543 b 799 686 764 575 788 629 z "},"€":{"ha":850,"x_min":0,"x_max":0,"o":"m 710 568 l 738 668 l 279 668 b 567 921 318 817 425 921 b 786 846 667 921 736 878 l 786 1011 b 604 1050 744 1029 692 1050 b 133 668 349 1050 188 878 l 50 668 l 28 568 l 113 568 b 107 499 111 547 107 519 l 107 482 l 49 482 l 31 382 l 118 382 b 536 -8 150 203 271 -8 b 799 71 668 -8 744 38 l 806 242 b 558 129 760 199 688 129 b 272 382 447 129 300 201 l 657 382 l 686 482 l 258 482 l 258 515 b 263 568 258 531 261 554 z "},"ℓ":{"ha":614,"x_min":0,"x_max":0,"o":"m 558 197 b 396 89 518 139 465 89 b 265 342 311 89 265 146 l 265 474 b 483 907 392 601 483 733 b 346 1103 483 1013 439 1103 b 213 1029 297 1103 251 1081 b 135 640 149 956 135 876 l 135 449 l 28 365 l 47 328 l 135 393 l 135 275 b 186 61 135 151 153 103 b 339 1 218 24 267 1 b 588 171 449 1 531 63 z m 265 726 b 336 1057 265 972 282 1057 b 403 904 382 1057 403 992 b 265 544 403 771 344 639 z "},"℮":{"ha":1268,"x_min":0,"x_max":0,"o":"m 1217 511 l 1217 525 b 632 1050 1217 815 956 1050 b 49 525 310 1050 49 815 b 632 0 49 236 310 0 b 1094 204 821 0 990 82 l 1010 204 b 633 31 918 99 785 31 b 276 186 494 31 368 92 b 264 218 268 196 264 206 l 264 504 b 271 511 264 510 267 511 z m 1003 549 b 996 539 1003 544 1001 539 l 271 539 b 264 549 267 539 264 544 l 264 829 b 278 865 264 843 268 856 b 633 1019 369 958 496 1019 b 989 871 772 1019 897 960 b 1003 836 997 861 1003 849 z "},"∂":{"ha":789,"x_min":0,"x_max":0,"o":"m 389 654 b 151 544 294 654 206 608 b 64 299 104 489 64 401 b 336 1 64 115 172 1 b 642 228 479 1 579 94 b 713 597 694 338 713 485 b 639 940 713 686 699 828 b 329 1150 569 1071 472 1150 b 121 1089 240 1150 171 1121 b 167 992 107 1054 143 989 b 372 1078 219 1035 293 1078 b 563 943 463 1078 533 1010 b 600 711 593 867 603 785 b 588 553 599 656 593 601 b 392 654 539 624 458 654 z m 424 594 b 575 490 499 594 557 529 b 503 204 560 371 543 293 b 336 50 469 129 414 50 b 199 231 250 50 199 129 b 265 508 199 332 221 438 b 422 594 311 574 364 594 z "},"∏":{"ha":1019,"x_min":0,"x_max":0,"o":"m 978 1019 l 39 1019 l 39 979 b 175 871 165 969 175 960 l 175 35 b 43 -86 175 -67 163 -76 l 43 -126 l 422 -126 l 422 -86 b 313 35 311 -76 313 -62 l 313 925 b 361 968 313 963 318 968 l 654 968 b 707 919 699 968 707 963 l 707 35 b 586 -86 707 -71 700 -78 l 586 -126 l 975 -126 l 975 -86 b 843 36 854 -76 843 -64 l 843 871 b 978 979 843 958 851 969 z "},"∑":{"ha":821,"x_min":0,"x_max":0,"o":"m 786 151 l 744 163 b 536 -14 683 -6 665 -14 l 160 -14 l 490 497 l 219 969 l 493 969 b 649 921 604 969 628 957 b 697 769 668 888 685 839 l 739 778 b 721 1019 732 874 722 992 l 49 1019 l 49 981 l 371 407 l 42 -96 l 42 -132 l 721 -132 z "},"∙":{"ha":333,"x_min":0,"x_max":0,"o":"m 168 638 b 57 526 107 638 57 589 b 168 415 57 465 107 415 b 279 526 229 415 279 465 b 168 638 279 589 229 638 z "},"√":{"ha":815,"x_min":0,"x_max":0,"o":"m 792 1299 l 732 1313 l 529 31 l 525 31 l 283 668 l 46 557 l 64 508 l 192 569 l 511 -237 l 543 -221 z "},"∞":{"ha":1113,"x_min":0,"x_max":0,"o":"m 1040 421 b 825 650 1040 557 950 649 b 563 485 701 650 629 560 b 300 650 488 576 407 650 b 69 414 168 650 69 551 b 290 182 69 278 172 182 b 557 349 406 182 482 260 b 817 182 656 228 731 182 b 1040 419 932 182 1040 272 z m 300 265 b 157 411 217 265 157 331 b 293 568 157 499 208 568 b 511 410 392 568 450 489 b 303 265 454 346 388 265 z m 817 568 b 954 414 897 568 954 507 b 821 265 954 344 906 265 b 606 418 746 265 696 311 b 815 568 653 469 724 568 z "},"∫":{"ha":558,"x_min":0,"x_max":0,"o":"m 238 15 b 181 -226 244 -131 225 -226 b 107 -149 149 -226 149 -149 b 28 -221 67 -149 26 -179 b 121 -293 28 -260 67 -293 b 354 369 256 -293 379 -158 l 326 929 b 385 1171 318 1128 354 1171 b 463 1099 418 1171 414 1099 b 531 1167 497 1099 531 1121 b 439 1238 531 1214 478 1238 b 208 615 315 1238 183 1128 z "},"≈":{"ha":796,"x_min":0,"x_max":0,"o":"m 678 638 b 546 532 639 572 601 532 b 417 583 499 532 468 553 b 263 638 379 604 331 638 b 57 497 176 638 100 581 l 115 447 b 253 551 150 503 189 551 b 381 504 300 551 339 529 b 544 446 446 467 486 446 b 735 588 629 446 692 508 z m 678 383 b 546 278 636 317 603 278 b 417 329 496 278 463 304 b 261 383 379 350 332 383 b 57 242 176 383 100 326 l 115 193 b 254 299 150 247 188 299 b 381 250 299 299 338 276 b 543 192 444 213 485 192 b 735 333 629 192 693 254 z "},"≠":{"ha":796,"x_min":0,"x_max":0,"o":"m 575 732 l 506 763 l 432 600 l 71 600 l 71 513 l 397 513 l 308 311 l 71 311 l 71 224 l 274 224 l 213 89 l 282 58 l 356 224 l 724 224 l 724 311 l 390 311 l 481 513 l 724 513 l 724 600 l 515 600 z "},"≤":{"ha":796,"x_min":0,"x_max":0,"o":"m 721 147 l 721 250 l 169 514 l 169 518 l 719 779 l 719 882 l 78 561 l 78 468 z m 725 1 l 725 90 l 72 90 l 72 1 z "},"≥":{"ha":796,"x_min":0,"x_max":0,"o":"m 81 882 l 81 779 l 631 517 l 631 514 l 81 250 l 81 147 l 722 468 l 722 561 z m 722 1 l 722 90 l 72 90 l 72 1 z "},"◊":{"ha":826,"x_min":0,"x_max":0,"o":"m 754 490 l 465 1088 l 363 1088 l 71 490 l 360 -103 l 465 -103 z m 656 490 l 417 -11 l 413 -11 l 171 492 l 411 992 l 417 992 z "}," ":{"ha":463,"x_min":0,"x_max":0,"o":""},"­":{"ha":390,"x_min":0,"x_max":0,"o":"m 33 281 b 194 299 67 288 125 299 b 371 281 214 299 290 296 l 371 449 b 206 431 303 436 264 431 b 33 449 139 431 92 439 z "},"ˉ":{"ha":463,"x_min":0,"x_max":0,"o":"m 3 832 l 461 832 l 461 957 l 3 957 z "},"∕":{"ha":188,"x_min":0,"x_max":0,"o":"m -262 -29 l -168 -29 l 450 1051 l 357 1051 z "},"Ω":{"ha":1079,"x_min":0,"x_max":0,"o":"m 1029 217 l 989 218 b 878 107 957 119 939 107 l 717 107 b 971 575 828 214 971 365 b 542 1029 971 858 792 1029 b 106 564 296 1029 106 849 b 356 107 106 328 260 188 l 203 107 b 88 218 143 107 119 124 l 50 217 l 85 0 l 435 0 l 447 29 b 263 553 369 169 263 349 b 538 983 263 871 385 983 b 815 560 679 983 814 872 b 628 29 817 349 692 153 l 639 0 l 992 0 z "},"∆":{"ha":943,"x_min":0,"x_max":0,"o":"m 889 0 l 889 39 l 494 1029 l 433 1013 l 51 39 l 51 0 z m 719 72 l 135 72 l 424 831 z "},"ﬁ":{"ha":753,"x_min":0,"x_max":0,"o":"m 457 1046 b 382 1051 436 1049 414 1051 b 126 724 118 1051 124 842 b 54 625 100 683 58 631 l 126 625 l 126 221 b 82 4 126 125 124 90 l 308 4 b 264 181 290 38 264 90 l 264 625 l 440 625 l 440 714 l 264 714 b 267 850 264 815 264 826 b 351 939 275 925 325 939 b 440 903 385 939 418 917 z m 479 714 b 514 538 513 647 514 618 l 514 206 b 467 4 514 129 508 71 l 704 0 b 653 186 681 38 653 79 l 653 514 b 704 714 653 628 681 675 z m 600 1007 b 501 910 546 1007 501 964 b 600 811 501 854 546 811 b 697 910 653 811 697 854 b 600 1007 697 964 653 1007 z "},"ﬂ":{"ha":753,"x_min":0,"x_max":0,"o":"m 457 715 l 258 715 l 258 793 b 267 881 258 826 258 856 b 343 939 282 925 322 939 b 449 890 393 939 435 903 l 442 1036 b 339 1051 414 1043 381 1051 b 121 726 113 1051 118 831 l 49 626 l 121 624 l 121 210 b 75 3 121 78 97 38 l 304 0 b 258 181 264 64 258 129 l 258 624 l 457 624 z m 507 1010 l 511 913 l 511 231 b 463 0 511 140 511 75 l 699 0 b 649 201 663 61 649 108 l 649 800 b 682 1036 649 875 653 903 z "},"¹":{"ha":521,"x_min":0,"x_max":0,"o":"m 146 951 l 206 951 l 206 618 b 176 506 206 551 189 525 l 333 506 b 314 589 325 521 314 539 l 314 1051 l 289 1051 z "},"³":{"ha":521,"x_min":0,"x_max":0,"o":"m 64 1047 l 61 917 b 246 981 101 961 119 981 b 335 975 297 981 317 978 b 269 874 315 944 285 894 l 182 758 b 282 743 228 757 251 756 b 344 657 313 731 344 697 b 243 567 344 617 313 567 b 132 667 218 567 150 574 l 44 560 b 235 501 122 503 206 501 b 440 668 389 501 440 610 b 326 806 440 682 440 767 b 486 1035 350 844 444 976 l 486 1047 z "},"²":{"ha":521,"x_min":0,"x_max":0,"o":"m 193 836 b 178 900 181 867 178 881 b 263 978 178 949 218 978 b 343 911 288 978 343 965 b 290 808 343 883 328 857 b 40 511 268 779 97 574 l 40 501 b 247 507 126 506 218 507 b 332 506 265 507 294 507 b 460 501 369 506 414 504 l 474 633 b 339 575 411 575 383 575 l 215 575 l 350 736 b 447 915 436 840 447 883 b 271 1051 447 978 385 1051 b 89 893 163 1051 79 986 z "},"‐":{"ha":390,"x_min":0,"x_max":0,"o":"m 33 281 b 194 299 67 288 125 299 b 371 281 214 299 290 296 l 371 449 b 206 431 303 436 264 431 b 33 449 139 431 92 439 z "}}}
